<?xml version="1.0" encoding="UTF-8"?>
<svg id="Layer_2" data-name="Layer 2" xmlns="http://www.w3.org/2000/svg" xmlns:xlink="http://www.w3.org/1999/xlink" viewBox="0 0 241.06 241.06">
  <defs>
    <style>
      .cls-1 {
        fill: #262626;
      }

      .cls-2, .cls-3 {
        fill: #fff;
      }

      .cls-2, .cls-4 {
        stroke: #333;
        stroke-miterlimit: 10;
        stroke-width: 5px;
      }

      .cls-5 {
        fill: #666766;
      }

      .cls-4 {
        fill: none;
      }

      .cls-6 {
        fill: #333;
      }

      .cls-7 {
        clip-path: url(#clippath);
      }
    </style>
    <clipPath id="clippath">
      <circle class="cls-2" cx="120.53" cy="120.53" r="118.03"/>
    </clipPath>
  </defs>
  <g id="Layer_1-2" data-name="Layer 1">
    <g id="gc-logo">
      <g>
        <circle class="cls-3" cx="120.53" cy="120.53" r="118.03"/>
        <g class="cls-7">
          <g>
            <path class="cls-3" d="M-55.48,53.31c12.12-15.44,2.29-36.14-5.76-44.5C-69.28.45-89.79-7.97-98.79-10.04c-9-2.07-28.02-5.52-29.01-18.18-.99-12.66,21.07-30,46.4-30.04,25.33-.04,69.69,8.69,87.4,2.07-3.2,7.64-15.91,10.27-20.77,10.6,18.38,5.23,41.96,10.74,53.89,16.74,11.93,6,54.76,34.99,67.23,40.37-10.6,2.82-26.54-2.68-26.54-2.68,0,0,26.03,19.07,36.8,34.73,10.77,15.66,27.61,36.9,27.03,62.76-11.62-24.54-21.44-40.99-43.09-56.08,5.98,19.49,18.99,67.16,27.81,78.78-12.12-6.02-22.4-17.48-27.34-27.02,4.6,14.43,14.13,27.76,16.94,30.91-9.41.41-18.12-4.92-23.62-11.5,10.42,14.18,21.22,23.26,21.22,23.26,0,0-21.57-3.28-39.04-20.8,2.84,21.04,7.74,39.66,11.85,47.76-10.61-6.75-13.78-12.26-20.79-30-7.01-17.74-10.8-44.38-10.8-44.38,0,0,.32,28.64-14.56,35.04,4.93-8.55,3.41-26.08-2.17-45.73-5.58-19.64-16.56-35.13-16.56-35.13,0,0,2.9,7.51.29,12.88-3.21-4.06-7.94-8.45-7.94-8.45l2.64,7.2s-5.02-.16-10.74-4.25c-4.6,1.71-16.11-4.55-16.11-4.55,0,0,4.29,5.99,5.08,12.25-4.55-4.18-8.64-7.16-8.64-7.16,0,0,4.38,7.16,4.75,9.51-5.92-2.63-7.96-3.52-7.96-3.52l5.35,5.7s-6.02,1-9.22-.7c4.73,4.68,5.4,6.61,5.4,6.61,0,0-5.37.8-14.04-3.07,2.48,3.26,3.38,6.17,3.38,6.17,0,0-2.03.4-7.28-1.49-4.08,2.34-11.32-3.08-15.4-7.96l-8.53-17.3Z"/>
            <g>
              <path class="cls-3" d="M-16.04,46.55c.73.66,4.98,2.24,4.98,2.24l-.15-.36,2.9,2.54s5.61,3.65,7.33,3.43c0,0-10.25-11.62-10.89-12.68,0,0,10.95,4.91,15.05,7.5,4.09,2.59,3.67,2.23,3.67,2.23,0,0-5.77-8.28-8.18-10.61,0,0-10.83-4.27-11.56-4.51,0,0-10.31-5.17-11.12-6.27l4.4,8.57s8,7.54,7.69,7.59-8.08-2.59-8.08-2.59l3.96,2.93Z"/>
              <path class="cls-3" d="M.58,40.57s11.38,5.56,14.83,8.1c-5.96-7.46-25.2-21.58-25.2-21.58l11.94,5.53,4.67.77S-3.77,21.98-18.22,14.55c-14.45-7.43-16.17-6.17-16.17-6.17,0,0,16.96,20.18,23.21,24.49,6.25,4.3,11.75,7.7,11.75,7.7Z"/>
              <path class="cls-3" d="M44.23,91.58s3.79,19.63,3.51,21.1c0,0,1.28-6.65.87-9.15,0,0,1.18,8.95.7,11.03,0,0,4.6-11.01,2.37-24.49l-5.64-17.56-1.81,19.07Z"/>
              <path class="cls-3" d="M67.74,132.7l5.83,16,.86-2.78,4.57,10.76s2.99,7.02,4.16,7.26c0,0-3.89-10.61-2.77-16.07l-4.23-24.4-4.33-3.48-7.72-.65,3.63,13.38Z"/>
              <path class="cls-3" d="M89.25,132.27c-.2-.19-5.88-7.68-6.3-8.46,0,0,4.92,6.18,16.69,12.2l7.23,5.55s-10.18-2.14-17.63-9.29Z"/>
              <path class="cls-3" d="M62.92,105.89l.53-2.87s9.53,13.51,12.92,16.65l-3.28-7.61s-1.57-1.88-2.41-2.89c-.84-1.01-6.93-12.13-6.83-13.63l2.42.93s7.79,10.59,9.36,12.18c0,0-6.21-11.97-6.82-12.99l5.41,4.29-10.11-18.85-1.17-4.71,7.98,13.11,7.77,11.7-.15-7.67s2.86,8.54,4.03,10.26l5.07,6.47-2.35-6.8s-4.04-8.17-4.54-10.36c0,0,8.31,15.32,12.01,17.68,0,0-12.29-24.48-13.25-31.54l7.3,13.43s7.48,10.08,9.2,11.36c0,0-8.73-14.67-9.3-17.85,0,0,5.81,11.89,11.27,15.96,0,0-4.85-6.65-6.27-11.05l-5.79-13.58-10-28.9-18.86-7.24-9.26-3.87-.22,11.78-6.81-5.92,1.52,7.24,4.54,9.16,6.62,6.53-5,11.68s7.56,22.06,14.45,27.9Z"/>
              <path class="cls-3" d="M108.32,128.62c-1.49-1.68-8.13-10.58-10.24-14.6,0,0,9.93,12.64,15.58,15.37l3.54,3.55-6.35-1.29-2.53-3.03Z"/>
              <path class="cls-3" d="M124.28,71.34l-1.37-4.16-12.4-14.35,8.15,8.01-7.55-10.99s15.46,16.65,21.21,26.38c0,0-2.25-7.61-6.5-13.29-4.26-5.68-6.5-7.79-6.5-7.79l-6.14-10.13s-2.72-5.38-5.11-8.03c-2.39-2.65-10.43-8.53-10.43-8.53l1.12,13.96,3.97,8.75,21.55,20.17Z"/>
              <path class="cls-3" d="M84.17,67.03c1.88,5.27,8.43,20.8,10.56,22.99l1.76-.92s8.89,13.8,10.66,16.26l1.64,2.37s-14.44-28.54-15.24-35.24c-.8-6.7-11.17-38.56-11.35-39.31-.18-.75-6.97-15.55-10.38-19.71,0,0,5.55,4.58,8.3,8.66,0,0,.05-4.02-4.7-8.74,0,0,6.64,5.04,8.48,7.05,1.85,2,4.47,2.59,4.47,2.59l-11.05-14.16s11.7,3.67,14.46,2.84l-1.08-2.1S74.09,2.14,71.68-.11c-2.41-2.25-4.05-4.36-4.05-4.36l-18.78-11.11s6.03,6.46,8.84,11.84l-4.64-3.22s-5.58-7.43-9.79-10.98c0,0-35.66-17.86-50.01-19.53,0,0,12.66,6.46,16.28,8.67l-19.35-6.73s-27.7-5.43-40.78-11.19c0,0,6.85,6.37,9.68,7.49l-6.52-.84s-16.2-6.75-20.21-10.85c0,0,.72,5.86,5.09,8.92,4.37,3.06,19.54,12.14,19.42,12.42-.12.28-5.92-2.85-5.92-2.85,0,0-19.4-7.29-21.94-6.47l4.57,3.87s-9.31-.69-12.95-4.23c-3.65-3.55-5.15-5.84-5.15-5.84,0,0,.27,4.51,5.07,8.06l-6.79-4.11s.38,2.14,1.57,3.15c0,0-9.38-2.62-13.5-7.38,0,0,1.23,3.44,8.13,7.96,6.9,4.52,11.05,8.63,11.05,8.63,0,0-12.42,3.27-26.84-7.99,0,0,.34,2.56,3.68,4.84,3.34,2.28,15.36,8.92,15.36,8.92,0,0-3.49,1.46-12.36-4.17-8.87-5.63-10.95-9.4-10.51-12.06.43-2.67,2.14-6.13,8.66-7.89,0,0-5.89-1.04-15.57,5.45-9.68,6.49-5.86,15.5-5.86,15.5,0,0,2.86,6.16,5.63,7.42,2.77,1.26,12.67,4.62,20.43,5.59,7.77.96,18.46,6.92,18.46,6.92l19.32,11.47s-9.62-12.01-21.23-17.31c-11.61-5.3-14.67-4.08-14.67-4.08,0,0-8.62-1.32-11.54-3.32-2.92-2-9.26-8.15-7.8-14.33,0,0,4.81,6.31,8.68,8.45,3.87,2.13,6.15,4.65,6.15,4.65l16.37,4.04,5.54-1.79,10.42,3.98L-54.51-1.84l17.16,6.67S-45.64.34-48.87-3.62l-4.23-4.54L-41.84-.24l-14.55-15.04,2.16.39L-34.62-1.95l4.82,4.39s-2.24-4.06-3.63-5.51c0,0,23.41,20.01,24.21,20.32.79.31-11.52-13.98-13.94-15.68,0,0-.23-2.58-2.15-4.59l-2.22-2.94s3.63,1.66,7.22,5.39c3.59,3.74,12.79,14.44,12.79,14.44L.15,18.78s11,11.36,12.79,11.46c0,0-7.36-9.58-10.58-15.38C-.86,9.07-8.45-.56-8.45-.56c0,0,14.11,11.63,16.72,14.47s6.81,11.65,10.71,14.07l-1.39-3.6s5.69,7.33,7.98,8.24c2.29.9,8.16,5.52,8.16,5.52L-.13-6.13,12.3,2.67s4.98,7.99,6.54,11.97c0,0-1.03-6.33-2.7-9.5,0,0,3.94,5.73,5.66,11.61,1.71,5.88,1.77,6.01,1.77,6.01l2.35,4.29s.1-9.39-2.61-14.54l1.39-.41s6.3,6.17,9.45,10.2c0,0,11.43,6.31-11.95-21.91l-13.19-11.86S25.79-3.24,30.8,2.62l.79-1.6s18.37,25.34,20.07,26.41c1.69,1.07-2.36-5.48-3.3-8.42-.94-2.94-5.39-8.86-5.39-8.86l4.89,3.13,16.26,22.21,12.55,12.45,7.49,19.1Z"/>
              <path class="cls-3" d="M18.79,32.09s9.02,9.51,11.08,11.52c2.06,2.01,13.89,14.48,13.89,14.48l-5.6-3.31s-16.27-13.58-19.37-22.69Z"/>
            </g>
            <path class="cls-6" d="M-55.48,53.31c1.46-2.5,2.64-5.08,3.41-7.76.77-2.68,1.18-5.43,1.22-8.21.13-5.55-1.27-11.12-3.57-16.22-1.15-2.56-2.53-5.02-4.13-7.31-.8-1.15-1.65-2.26-2.57-3.3-.91-1.05-1.9-1.99-2.97-2.89-2.13-1.79-4.49-3.36-6.91-4.82-2.43-1.45-4.94-2.78-7.5-4.03-5.12-2.48-10.41-4.66-15.8-6.41-1.35-.43-2.71-.84-4.06-1.17-1.35-.33-2.78-.63-4.18-.95-2.81-.64-5.63-1.33-8.41-2.21-2.78-.88-5.53-1.93-8.15-3.33-2.6-1.41-5.12-3.19-7.02-5.65-.94-1.22-1.71-2.62-2.19-4.12-.48-1.5-.7-3.06-.62-4.65.08-1.58.46-3.09,1-4.52.55-1.43,1.26-2.77,2.07-4.03,1.63-2.52,3.63-4.74,5.81-6.72,2.18-1.98,4.55-3.74,7.03-5.29,4.97-3.11,10.39-5.44,16.03-6.99,2.82-.77,5.7-1.35,8.6-1.71,1.45-.18,2.91-.31,4.37-.38,1.46-.07,2.93-.08,4.37-.06,5.79.08,11.54.49,17.27.97,11.46.96,22.87,2.24,34.28,2.99,5.71.37,11.42.62,17.1.51,2.84-.06,5.67-.22,8.46-.57,2.79-.35,5.55-.88,8.1-1.82h0c.63-.23,1.33.09,1.56.72.11.3.09.62-.02.89-.88,2.12-2.42,3.85-4.11,5.19-1.71,1.35-3.6,2.37-5.53,3.19-1.94.82-3.94,1.46-5.96,1.95-2.03.49-4.07.86-6.2,1.02l.25-2.41c10.79,3.06,21.71,5.8,32.53,8.98,2.71.8,5.41,1.63,8.09,2.51,2.69.88,5.36,1.82,8.01,2.87,1.32.53,2.64,1.08,3.94,1.69,1.3.6,2.59,1.27,3.83,1.96,2.49,1.38,4.91,2.83,7.32,4.29,9.62,5.87,19.08,11.95,28.61,17.91,4.76,2.98,9.53,5.95,14.34,8.84,2.4,1.44,4.82,2.87,7.25,4.24,2.43,1.37,4.89,2.71,7.36,3.81h.02c.65.3.94,1.06.65,1.71-.17.37-.49.63-.85.72-2.32.6-4.68.83-7,.84-2.33.02-4.63-.16-6.91-.47-2.28-.3-4.53-.73-6.75-1.24-2.23-.52-4.41-1.11-6.63-1.84l1.19-2.28c4.07,3.02,8,6.15,11.87,9.38,3.87,3.23,7.66,6.56,11.32,10.04,3.65,3.49,7.2,7.11,10.45,11.04l1.2,1.49,1.16,1.53,1.12,1.57,1.07,1.54,4.31,6.17c2.87,4.12,5.7,8.31,8.32,12.63,2.63,4.32,5.04,8.8,7.11,13.45,1.02,2.33,1.96,4.7,2.78,7.12.83,2.41,1.53,4.87,2.09,7.37.56,2.5,1.01,5.02,1.27,7.57.26,2.55.37,5.12.33,7.68-.01.73-.62,1.32-1.35,1.3-.52,0-.97-.32-1.18-.76h0c-2.55-5.4-5.18-10.74-8.02-15.95-2.84-5.21-5.92-10.28-9.38-15.06-3.45-4.79-7.31-9.27-11.56-13.36-4.24-4.1-8.85-7.81-13.7-11.19l2.06-1.5c2.04,6.69,3.99,13.39,5.98,20.08,1.99,6.68,4.01,13.36,6.13,19.99,2.12,6.64,4.32,13.24,6.74,19.75,1.22,3.25,2.49,6.48,3.89,9.63.7,1.58,1.43,3.13,2.23,4.64.79,1.51,1.65,2.98,2.61,4.27h0c.44.6.32,1.44-.27,1.88-.42.31-.96.34-1.39.13-2.99-1.49-5.82-3.27-8.48-5.25-2.67-1.98-5.17-4.16-7.52-6.49-2.35-2.34-4.54-4.83-6.54-7.47-2-2.64-3.83-5.43-5.38-8.39l2.44-1.01c.88,2.76,1.94,5.47,3.12,8.13,1.18,2.66,2.49,5.27,3.9,7.82,1.41,2.55,2.92,5.06,4.52,7.5.8,1.22,1.62,2.42,2.47,3.6.85,1.17,1.73,2.35,2.64,3.39h0c.48.56.42,1.39-.12,1.87-.23.2-.52.31-.81.32-2.39.1-4.79-.15-7.1-.7-2.31-.55-4.54-1.4-6.65-2.48-4.2-2.16-7.91-5.19-10.93-8.79l2.06-1.61c1.56,2.09,3.14,4.16,4.8,6.16,1.65,2.02,3.36,3.98,5.11,5.92,1.75,1.93,3.56,3.81,5.4,5.65,1.84,1.83,3.75,3.64,5.68,5.31l.03.02c.54.47.6,1.28.14,1.83-.31.35-.76.5-1.19.43-1-.17-1.91-.37-2.85-.59-.93-.22-1.85-.46-2.77-.72-1.83-.52-3.64-1.11-5.42-1.76-3.57-1.3-7.05-2.85-10.4-4.63-3.36-1.78-6.58-3.81-9.66-6.05-3.06-2.25-5.96-4.74-8.65-7.43l2.19-1.08c1.1,8.12,2.53,16.19,4.35,24.17.92,3.99,1.93,7.95,3.11,11.85.59,1.95,1.22,3.89,1.91,5.79.7,1.9,1.45,3.78,2.34,5.54h0c.32.64.06,1.4-.57,1.72-.42.21-.89.17-1.26-.07-2.96-1.89-5.86-4-8.37-6.6-2.51-2.59-4.53-5.62-6.18-8.73-1.67-3.12-3.06-6.33-4.4-9.54-.67-1.61-1.31-3.22-1.95-4.83-.32-.8-.63-1.62-.95-2.44-.3-.82-.61-1.64-.89-2.47-2.29-6.62-4.02-13.37-5.55-20.15-1.51-6.8-2.79-13.61-3.82-20.51l2.44-.19c0,1.74-.09,3.39-.22,5.08-.13,1.68-.32,3.36-.56,5.03-.48,3.34-1.18,6.66-2.2,9.91-1.03,3.24-2.4,6.42-4.37,9.3-.99,1.44-2.13,2.79-3.47,3.96-1.32,1.18-2.86,2.16-4.5,2.87-.61.26-1.31-.01-1.57-.62-.15-.36-.12-.74.05-1.06v-.02c.82-1.43,1.42-3.02,1.82-4.67.41-1.65.67-3.37.83-5.09.31-3.46.21-6.99-.09-10.49-.61-7.02-2.02-13.99-3.79-20.86-.9-3.44-1.88-6.83-3.07-10.15-1.18-3.33-2.52-6.61-3.99-9.83-1.47-3.22-3.07-6.38-4.79-9.48-.86-1.55-1.75-3.08-2.67-4.59-.92-1.5-1.87-3.02-2.86-4.44l2-1.07c.22.59.38,1.11.54,1.68.15.55.29,1.11.41,1.67.24,1.12.4,2.27.47,3.43.07,1.16.04,2.34-.13,3.53-.09.59-.22,1.18-.38,1.77-.17.58-.39,1.16-.66,1.72-.27.56-.94.8-1.5.54-.16-.08-.29-.18-.4-.31v-.02c-1.18-1.47-2.46-2.9-3.77-4.28-.66-.69-1.33-1.38-2-2.05-.68-.67-1.37-1.35-2.05-1.99l1.82-1.21,2.63,7.2v.02c.22.58-.08,1.21-.65,1.42-.14.05-.29.07-.43.07-.18,0-.3-.02-.44-.03-.14-.01-.27-.03-.4-.05-.26-.03-.52-.07-.78-.12-.51-.09-1.02-.2-1.51-.34-.99-.26-1.96-.59-2.91-.97-.94-.4-1.87-.82-2.75-1.33-.45-.24-.87-.52-1.31-.78-.43-.27-.84-.57-1.26-.85l1.04.14c-.87.32-1.72.37-2.51.36-.8-.02-1.56-.12-2.3-.26-1.48-.28-2.89-.71-4.27-1.19-1.38-.49-2.72-1.04-4.04-1.63-1.32-.6-2.61-1.21-3.91-1.91l1.42-1.61c.68.99,1.26,1.95,1.82,2.96.55,1.01,1.06,2.04,1.52,3.09.46,1.06.86,2.14,1.19,3.26.33,1.12.59,2.27.74,3.44.08.6-.34,1.15-.94,1.22-.33.04-.65-.07-.87-.27h0c-1.36-1.26-2.76-2.47-4.19-3.66-.71-.59-1.43-1.18-2.16-1.75-.72-.57-1.46-1.15-2.19-1.68l1.57-1.44c.47.78.92,1.55,1.37,2.33.45.78.88,1.57,1.31,2.36.42.8.84,1.6,1.22,2.44.19.42.38.84.55,1.29.17.45.34.9.44,1.5.1.58-.28,1.13-.87,1.24-.22.04-.43,0-.62-.08h-.02s-7.96-3.53-7.96-3.53l1.21-1.72,5.35,5.71h0c.4.44.38,1.11-.05,1.51-.16.15-.36.24-.56.27-.84.13-1.62.2-2.44.26-.81.05-1.62.07-2.45.03-.82-.03-1.65-.11-2.49-.27-.84-.16-1.69-.41-2.52-.84l1.25-1.69c1.03,1.02,2.04,2.07,2.99,3.18.48.56.94,1.13,1.39,1.73.22.3.44.61.65.94.1.16.21.33.31.51.05.09.1.18.15.28l.07.16.04.09s.02.06.05.13h0c.19.55-.09,1.14-.63,1.34-.07.02-.14.04-.22.05-.22.03-.36.04-.54.05-.17.01-.33.01-.49.02-.32,0-.65,0-.96,0-.64-.01-1.27-.07-1.9-.14-1.25-.14-2.48-.37-3.7-.66-1.21-.29-2.4-.65-3.58-1.06-.59-.2-1.16-.43-1.74-.65l-1.71-.72,1.26-1.59c.37.49.73.99,1.06,1.51.34.51.65,1.04.95,1.58.3.54.57,1.09.83,1.65.13.28.25.57.36.86.12.3.22.57.33.91v.02c.17.53-.12,1.1-.65,1.27-.05.01-.1.03-.14.03-.19.03-.25.03-.36.04-.09,0-.19.01-.28,0-.18,0-.36,0-.53-.01-.34-.02-.68-.06-1.01-.11-.66-.1-1.3-.22-1.93-.38-.63-.16-1.25-.34-1.86-.54-.61-.2-1.21-.41-1.8-.64l.77-.07c-.83.46-1.78.64-2.66.63-.89-.02-1.72-.21-2.5-.47-1.56-.54-2.94-1.36-4.22-2.28-1.27-.93-2.45-1.96-3.53-3.07-1.08-1.12-2.08-2.3-2.95-3.57,1.09,1.08,2.23,2.1,3.43,3.05,1.19.94,2.43,1.82,3.72,2.58,1.29.75,2.64,1.41,4.01,1.77,1.36.37,2.78.39,3.78-.24.22-.14.48-.16.71-.09l.07.02c.58.19,1.16.37,1.74.54.58.16,1.17.32,1.75.44.58.14,1.17.24,1.74.31.29.04.57.06.85.07.14,0,.27,0,.4,0,.07,0,.12,0,.18,0,.04,0,.14-.01.1,0l-.79,1.32c-.07-.22-.18-.49-.28-.74-.11-.26-.22-.51-.34-.77-.24-.51-.49-1.01-.76-1.5-.28-.49-.56-.98-.87-1.45-.31-.47-.64-.93-.97-1.38-.35-.46-.25-1.12.21-1.47.31-.23.7-.27,1.03-.13h.01s1.63.69,1.63.69c.55.2,1.1.43,1.66.62,1.11.38,2.24.73,3.38,1,1.14.27,2.29.49,3.44.61.58.06,1.15.11,1.72.12.29.01.57,0,.85,0,.14,0,.28,0,.41-.02.13,0,.28-.02.37-.03l-.84,1.39s0,.01,0,0l-.02-.03-.04-.09c-.03-.06-.06-.13-.1-.19-.07-.13-.16-.27-.25-.41-.17-.27-.37-.55-.57-.82-.4-.54-.84-1.08-1.29-1.61-.91-1.05-1.88-2.06-2.88-3.05-.42-.41-.42-1.09,0-1.5.34-.34.84-.4,1.24-.2h0c.56.29,1.22.5,1.92.63.7.13,1.43.2,2.17.23.74.03,1.49.01,2.24-.03.74-.05,1.52-.12,2.22-.23l-.6,1.78-5.36-5.7h0c-.41-.43-.38-1.11.05-1.52.32-.3.79-.37,1.17-.2l7.97,3.52-1.5,1.15c-.05-.28-.18-.68-.32-1.05-.15-.38-.32-.77-.5-1.16-.36-.78-.76-1.56-1.17-2.33-.41-.77-.84-1.54-1.28-2.3-.44-.76-.89-1.53-1.34-2.27h0c-.31-.52-.15-1.19.36-1.5.39-.24.86-.2,1.21.05.78.57,1.52,1.14,2.26,1.73.74.59,1.48,1.18,2.2,1.78,1.45,1.2,2.88,2.44,4.27,3.72l-1.82.94c-.27-2.07-.93-4.13-1.78-6.1-.43-.99-.91-1.96-1.43-2.91-.52-.94-1.09-1.89-1.68-2.74h0c-.35-.51-.22-1.19.28-1.54.35-.24.8-.26,1.15-.07,1.21.64,2.49,1.26,3.76,1.83,1.28.57,2.57,1.1,3.87,1.56,1.3.46,2.63.85,3.94,1.1.66.12,1.31.21,1.93.22.62.01,1.22-.05,1.69-.23.35-.13.71-.07,1,.11l.04.02c.39.26.77.53,1.16.78.4.24.79.5,1.2.71.81.46,1.66.85,2.51,1.21.86.35,1.74.64,2.63.87.44.12.89.21,1.34.3.22.04.45.08.67.1.11.01.22.03.33.04.1.01.23.02.29.02l-1.09,1.51-2.64-7.2h0c-.21-.59.08-1.23.67-1.45.41-.15.86-.05,1.16.23.72.68,1.42,1.35,2.11,2.04.69.69,1.38,1.39,2.05,2.1,1.35,1.42,2.66,2.88,3.9,4.43l-1.91.21c.2-.44.38-.89.52-1.36.13-.47.24-.96.31-1.46.14-1,.17-2.02.11-3.06-.07-1.03-.21-2.07-.43-3.1-.11-.51-.23-1.03-.37-1.53-.14-.5-.3-1.02-.47-1.47v-.02c-.23-.59.07-1.25.66-1.47.5-.19,1.04,0,1.33.42,1.05,1.52,2.01,3.02,2.95,4.56.94,1.54,1.85,3.09,2.72,4.67,1.75,3.15,3.38,6.36,4.88,9.63,1.5,3.27,2.87,6.61,4.08,10.01.61,1.7,1.17,3.42,1.69,5.14.52,1.73.99,3.46,1.45,5.2,1.81,6.95,3.25,14.03,3.89,21.24.31,3.61.42,7.25.1,10.9-.16,1.83-.43,3.66-.89,5.47-.44,1.81-1.1,3.6-2.05,5.28l-1.51-1.7c2.81-1.21,5.16-3.39,6.93-5.99,1.78-2.61,3.07-5.59,4.05-8.67.97-3.09,1.64-6.29,2.1-9.52.23-1.62.41-3.24.53-4.87.12-1.62.21-3.28.21-4.87h0c0-.68.55-1.23,1.22-1.23.61,0,1.12.45,1.21,1.04,1.03,6.79,2.31,13.59,3.81,20.31,1.52,6.72,3.25,13.4,5.49,19.87.56,1.62,1.16,3.21,1.8,4.81.64,1.6,1.28,3.2,1.95,4.79,1.33,3.17,2.71,6.32,4.31,9.31,1.6,2.99,3.47,5.78,5.78,8.16,2.31,2.39,5.04,4.39,7.91,6.22l-1.82,1.65c-.96-1.91-1.74-3.86-2.46-5.82-.71-1.96-1.36-3.94-1.96-5.93-1.2-3.97-2.23-7.99-3.16-12.02-1.85-8.06-3.29-16.21-4.41-24.4-.1-.71.4-1.35,1.1-1.45.41-.06.8.09,1.08.36h0c2.6,2.6,5.4,5,8.36,7.17,2.97,2.16,6.09,4.12,9.34,5.84,3.25,1.72,6.62,3.22,10.08,4.48,1.73.63,3.48,1.2,5.24,1.7.88.25,1.77.48,2.66.69.88.21,1.8.41,2.64.55l-1.03,2.28c-2.05-1.77-3.96-3.58-5.85-5.45-1.88-1.87-3.72-3.78-5.5-5.74-1.78-1.96-3.53-3.96-5.2-6.01-1.69-2.04-3.3-4.15-4.89-6.27-.43-.58-.31-1.4.26-1.83.56-.42,1.34-.32,1.78.2h.01c2.8,3.35,6.25,6.17,10.11,8.15,1.93.99,3.97,1.76,6.06,2.26,2.09.5,4.24.72,6.38.63l-.92,2.19c-1.04-1.19-1.92-2.38-2.81-3.59-.88-1.22-1.72-2.45-2.54-3.7-1.64-2.5-3.18-5.06-4.63-7.67-1.44-2.61-2.79-5.29-4.01-8.02-1.22-2.73-2.31-5.54-3.23-8.4-.22-.7.16-1.44.86-1.67.62-.2,1.29.09,1.58.65h0c1.46,2.81,3.21,5.48,5.14,8.01,1.93,2.54,4.04,4.94,6.3,7.19,2.26,2.25,4.68,4.34,7.23,6.24,2.56,1.89,5.25,3.59,8.09,5l-1.66,2c-1.12-1.5-2.02-3.06-2.85-4.64-.83-1.58-1.59-3.18-2.31-4.8-1.43-3.23-2.72-6.49-3.95-9.78-2.45-6.57-4.66-13.21-6.79-19.87-2.13-6.66-4.16-13.35-6.15-20.04-2-6.69-3.94-13.4-5.97-20.06h0c-.22-.71.18-1.47.9-1.68.41-.12.84-.04,1.16.18,4.95,3.46,9.67,7.26,14.03,11.47,4.36,4.2,8.32,8.82,11.86,13.72,3.54,4.9,6.68,10.07,9.55,15.35,2.88,5.28,5.52,10.67,8.08,16.08l-2.53.54c.04-2.45-.06-4.9-.31-7.34-.24-2.44-.68-4.86-1.21-7.26-.54-2.4-1.21-4.77-2.01-7.1-.79-2.33-1.7-4.63-2.69-6.9-2.01-4.52-4.36-8.9-6.94-13.15-2.58-4.25-5.37-8.39-8.22-12.5l-4.31-6.17-1.07-1.55-1.07-1.5-1.12-1.47-1.16-1.44c-3.15-3.81-6.63-7.37-10.23-10.81-3.6-3.44-7.36-6.73-11.18-9.94-3.83-3.2-7.75-6.32-11.74-9.28-.58-.43-.7-1.24-.27-1.82.34-.46.93-.63,1.45-.46h0c2.05.68,4.22,1.27,6.37,1.77,2.16.5,4.33.91,6.51,1.2,2.18.29,4.37.46,6.54.45,2.17-.01,4.32-.23,6.36-.75l-.18,2.43c-2.67-1.19-5.14-2.55-7.61-3.94-2.46-1.39-4.89-2.83-7.31-4.28-4.83-2.91-9.61-5.88-14.37-8.87-9.53-5.97-19-12.06-28.57-17.91-2.4-1.45-4.8-2.9-7.23-4.25-1.21-.68-2.42-1.3-3.67-1.88-1.24-.58-2.52-1.12-3.81-1.64-2.58-1.03-5.21-1.96-7.86-2.83-2.65-.88-5.33-1.7-8.01-2.5-10.75-3.18-21.65-5.93-32.49-9.02-.65-.19-1.03-.87-.85-1.52.14-.51.59-.85,1.09-.89h0c1.91-.14,3.88-.49,5.79-.95,1.91-.46,3.79-1.06,5.59-1.82,1.79-.76,3.5-1.69,4.98-2.86,1.47-1.16,2.7-2.58,3.39-4.22l1.54,1.61c-2.84,1.04-5.76,1.58-8.66,1.95-2.91.35-5.81.51-8.71.57-5.8.11-11.56-.15-17.31-.53-11.49-.78-22.91-2.07-34.32-3.04-5.71-.48-11.41-.89-17.1-.98-1.43-.02-2.83-.02-4.23.05-1.4.06-2.81.18-4.2.36-2.79.34-5.56.89-8.28,1.63-5.43,1.48-10.66,3.73-15.43,6.7-2.38,1.49-4.65,3.16-6.72,5.04-2.07,1.87-3.94,3.96-5.43,6.26-1.47,2.29-2.58,4.86-2.72,7.46-.07,1.28.11,2.61.51,3.84.4,1.24,1.03,2.4,1.83,3.45,1.62,2.1,3.88,3.74,6.31,5.05,2.44,1.31,5.07,2.33,7.76,3.18,2.69.85,5.45,1.54,8.23,2.17,1.4.32,2.78.61,4.22.97,1.43.36,2.82.77,4.2,1.22,5.52,1.81,10.87,4.02,16.08,6.55,2.6,1.27,5.16,2.64,7.66,4.13,2.49,1.51,4.93,3.12,7.19,5.03,1.13.95,2.22,2,3.19,3.11.98,1.11,1.88,2.28,2.72,3.49,1.68,2.42,3.11,4.98,4.32,7.66,1.2,2.68,2.16,5.47,2.81,8.34.65,2.87,1,5.83.9,8.8-.1,2.96-.69,5.93-1.83,8.67-1.13,2.73-2.79,5.23-4.88,7.24Z"/>
            <path class="cls-6" d="M65,13.21c3.58,2.51,6.43,6.05,8.59,9.89.27.48.54.96.79,1.46.26.49.51.98.74,1.48.24.5.46,1,.68,1.51.23.5.43,1.01.64,1.52.84,2.04,1.52,4.13,2.15,6.24,1.25,4.21,2.16,8.49,2.99,12.77.41,2.14.79,4.28,1.16,6.43l.54,3.21c.1.52.18,1.04.29,1.55.11.52.22,1.03.34,1.55.96,4.12,2.38,8.16,3.97,12.14,1.59,3.98,3.41,7.88,5.32,11.73.96,1.93,1.95,3.84,2.96,5.74,1,1.91,2.03,3.8,3.08,5.69,2.1,3.77,4.28,7.5,6.45,11.25l-2.08,1.26c-2.32-3.67-4.58-7.39-6.76-11.16-1.09-1.88-2.17-3.78-3.22-5.69-1.04-1.92-2.05-3.85-3.04-5.8-1.98-3.89-3.8-7.87-5.43-11.95-1.63-4.07-3.04-8.26-4.01-12.6-.12-.54-.23-1.09-.34-1.63-.11-.55-.19-1.1-.29-1.65l-.5-3.21c-.33-2.14-.67-4.27-1.03-6.4-.73-4.25-1.59-8.47-2.67-12.61-1.09-4.14-2.41-8.21-4.18-12.09-1.77-3.88-4.08-7.52-7.12-10.64Z"/>
            <path class="cls-6" d="M31.97,34.41c-1.71-4.6-3.83-9.47-3.83-9.47l1.86,7.22s-2.48-3.07-3.74-5.12c-1.27-2.05-4.76-12.61-4.76-12.61l.92,6.95S15.17,9.76,4.05-2C-7.07-13.77-24.92-25.24-34.64-28.24c-9.72-3-24.2-9.72-30.22-15.8,4.08,6.17,19.61,14.14,19.61,14.14,0,0-9.53-.79-20.6-6.69-11.07-5.89-14.75-8.74-14.75-8.74,0,0,11.21,11.45,24.64,15.49-13.64.51-29.38-2.9-37.07-9.85,6.65,7.69,18.58,10.98,18.58,10.98,0,0-3,5.55-8.47,4.53-5.47-1.02-12.49-1.99-21.35-9.43,4.72,6.19,15.53,11.5,24.75,11.66-.07.09-.15.18-.24.28-2.24,2.7-12.39,6.42-27.76-5.91,2.55,4.61,8.9,8.53,11.65,9.43-5.8,1.24-11.67-2.05-11.67-2.05,5.04,4.66,13.59,4.8,18.52,4.76,4.93-.04,16.55,1.44,16.55,1.44,0,0-4.49-2.01-6.75-2.79,5.12-.02,10.35,3.07,13,6.88-4.29-2.27-7.49-2.7-7.49-2.7,0,0,8.29,4.35,13.11,9.36,4.83,5.01,8.9,10.16,10.24,12.26-.96-4.05-3.61-7.86-3.61-7.86,0,0,14.5,15.3,15.94,34.5,1.42-9.88-2.61-19.28-4.88-23.69,8.18,5.76,12.69,13.18,14.41,22.47,1.28-8.34-3.72-15.61-4.72-16.81l19.74,10.48-24.24-15.33,17.04,7.24-17.85-10.55S-14.74,18.51-1.13,28.87C-14.52,17.08-33.21,9.35-33.21,9.35c0,0,13.79,4.72,24.84,11.9,11.05,7.18,14.32,11.1,14.32,11.1,0,0-4.59-.51-6.39-.43,6.12,1.28,7.84,2.92,10.11,4.89,2.27,1.98,7.88,9.44,8.49,10.17l-3.42-1.34s3.75,2.37,5.25,3.95,4.88,6.63,3.32,12.48l.86,1.23s1.16-4.79-.17-10.19l-.45-1.46s14.2,13.62,28.73,12.61l-.49-.22c1.57.16,2.16-1.18,2.16-1.18,0,0-1.18.43-5.41-1.91l-4.91-8.64-2.53-5.69,1.16-2.12,2.56-.54s-7.72-2.27-12.87-9.57ZM-76.24-20.06s.44-.96,1.25-1.05l2.12,2.25-3.37-1.21ZM-60.19-25.95s-4.02,1.03-8.24-.89c4.57-.21,8.24.89,8.24.89ZM-55.81-4.24c-4.22-3.57-8.16-9.25-8.16-9.25l9.69,7.88-8.56-9.62L-46.12-1.33l-13.73-14.32L-40.58.84l-15.9-17.36C-45.53-6.3-35.29,3.99-31.66,6.64-48.87,1.32-51.59-.66-55.81-4.24ZM-9.32,10.87l-14.89-15.5L-4.18,21.39s-11.48-6.2-13.55-7.62c-2.93-3.72-7.65-9.8-7.65-9.8l3.67,6.52s-11.45-7.56-21.15-16.84c-5.99-5.73-10.51-9.79-14.58-12.88,2.75,1.5,6.15,3.66,9.73,6.65C-39.14-5.44-25.54,6.03-25.54,6.03l-24.18-23.44L-29.94-1.65s-12.24-12.25-18.31-17.12C-38.51-12.47-24.04.32-16.85,9.36c-11.42-15.24-27.1-28.64-34.11-33.07C-37.88-16.54-27.21-5.41-21.76.95c-6.07-8.85-13.77-16.89-13.78-16.9C-27.95-10.08-17.25-.66-9.32,10.87ZM36.18,57.73c-2.15-2.64-4.63-5.48-4.63-5.48,0,0,1.28,2.66,1.87,3.52-4.09-2.91-7.72-5.5-11.35-9.27-3.62-3.77-9.46-15.58-9.46-15.58,0,0,1.41,5.51,3.02,8.71C10.82,34.15,3.13,23.95.76,19.9-1.62,15.85-4.15,7.5-4.15,7.5c0,0,.18,4.46.85,7.04-3.29-4.82-15.02-19.32-35.85-35.72,3.59,2.35,17.68,11.9,27.45,23.11-8.26-10.6-18.41-19.51-22.89-22.75C-23.87-14.06-15.12-5.28-11.63-1.1c-7.34-10.07-11.37-13.33-18.35-18.86C-21.29-15.5-14.05-7.11-9.09-1.32-4.14,4.48,5.52,17.46,10.66,24.76c5.14,7.29,11.5,15.47,18.31,22.79,6.82,7.32,17.07,12.94,20.46,15.44,0,0-8.15-1.83-13.25-5.25ZM27.94,33.27c-2.09-1.86-5.06-2.87-5.06-2.87,0,0,6.57,5.04,9.43,9.39-3.08-3.05-8.12-5.34-8.12-5.34,0,0,8.04,6.23,10.64,9.27,2.59,3.04,6.39,8.86,6.39,8.86,0,0-8.09-5.3-13.53-12.17,2.71,4.4,8.16,10.87,13.72,15.85-9.04-6.71-15.9-14.75-21.98-23.27C13.16,24.21-6.32-6.35-26.3-21.78-10.94-10.83,3.88,7.78,12.89,20.06,5.91,8.18-2.26-2.02-2.26-2.02c0,0,11.32,12.28,18.28,24.02C12.63,14.54,3.6,1.06,3.6,1.06c0,0,11,14.77,14.91,21.79-1.91-5.05-4.92-10.35-4.92-10.35,0,0,9.63,15.25,14.35,20.77Z"/>
            <path class="cls-6" d="M106.4,12.56c-3.11.32-6.21,0-9.22-.59-3-.61-5.92-1.5-8.75-2.61-2.83-1.11-5.57-2.41-8.19-3.92-2.62-1.51-5.14-3.2-7.42-5.15,2.6,1.51,5.26,2.85,7.98,4.04l2.05.87,2.06.82,2.09.76c.7.24,1.4.47,2.1.7,2.81.89,5.66,1.64,8.53,2.18,2.87.54,5.76.86,8.63.83l.14,2.08Z"/>
            <g>
              <path class="cls-6" d="M107.06,142.76l-.16-.04s1.54,1.72.16.04Z"/>
              <path class="cls-6" d="M74.94,43.11c-1.4-1.67-6.37-8.76-6.37-8.76l3.52,6.76s-1.5-1.23-2.66-2.62-9.47-14.32-9.47-14.32l4.02,8.35s-5.35-4.99-7.31-9.04c-1.96-4.04-12.06-19.26-19.77-24.53,4.92,5.47,8.89,12.21,8.89,12.21,0,0-3.42-2.82-6.21-6.17,2.18,5.16,5.81,7.81,7.78,9.47,1.98,1.66,8.06,10.65,9.79,15.83-5.2-8.07-11.17-14.8-11.17-14.8l14.21,22.55s-9.78-5.91-11.43-8.31c-1.65-2.4-3.55-6.38-3.55-6.38l.79,4.07s-1.26-1.08-1.72-1.64-3.17-6.7-6.17-10.16c1.99,5.08,2.96,6.87,2.96,6.87,0,0-5.58-5.69-8.27-11.6C30.1,4.98,15.04-9.52,4.4-13.77,13.51-7.53,21.88,1.08,21.88,1.08c0,0-4.13-2.82-8.16-4.54,9.91,6.63,16.11,11.5,21.63,25.34,0,0-2.42-3.89-6.41-7.96,2.3,4.17,3.78,5.66,5.41,9.03,1.63,3.37,4.07,4.17,5.62,9.85,1.55,5.68,4.86,11.17,4.86,11.17l-3.26-.33-2.39,2.94,4.28,6.83,2.6,5.52s3.44,3.86,5.35,4.28c0,0-3.22.56-7.97-.8-4.74-1.36-15-8.23-15-8.23,7.38,10.33,18.65,35.51,18.91,56.22,1.18-9.85-2.53-26.09-2.53-26.09,0,0,3.9,12,4.92,18.42-.84-9.5-3.17-19.17-4.59-22.95,4.22,6.68,5.86,16.93,5.86,16.93,0,0-.55-10.01-4.85-20.79,3.67,4.92,7.97,20.49,7.37,29.33-.6,8.84-5.07,18.15-5.07,18.15,0,0,4.46-5.49,6.73-11.64,2.27-6.16,1.57-14.53,1.57-14.53l1.74,10.3s11.54,34.37,15.22,41.47c-4.73-13.32-7.54-27.88-7.54-27.88,0,0,6.67,24.7,14.77,39.93-5.46-13.77-9.28-28.68-9.75-34.2,2.97,13.9,7.56,23.37,7.56,23.37,0,0-3.21-11.63-3.98-16.66l4.14,5.25-1.02-5.68-3.79-3.63s-.83-5.1-.35-6.8l4.87,4.56,12.41,7.88s-.38-1.9-3.52-3.83c-3.15-1.93-10.65-15.23-10.65-15.23,0,0,2.21,7.67,5.51,12.19,0,0-2.08-2.64-4.72-5.16-2.64-2.53-9.31-9.73-13.56-16.95-1.67-3.28-1.95-6.65-1.95-6.65,0,0-.58,1.78-.69,3-5.97-9.62-9.93-16.63-12.03-24.36,5.33,10.63,9.55,17.39,11.59,19.94-4.89-8.51-8.51-17.1-8.51-17.1,0,0,9.25,18.09,19.55,29.79-8.75-12.92-18.22-28.8-21.16-40.54,8.52,18.43,16.73,31.8,23.9,40.95,7.17,9.15,30.02,28.84,31.94,31.15.12.15.23.27.32.39l7.72,1.78-4.11-3.54-8.8-10.16s-1.01-.79-2.63-2.06l-3.82-5.89s2.87,3.14,6.18,5.08c3.31,1.94,9.1,4.52,12.05,4.74,0,0,.56-1.29-1.44-1.57-2.01-.28-10.95-6.21-15.78-14.23,1.56,4.73,7.43,10.92,11.21,13.43,0,0-5.53-1.42-12.97-11.61-7.44-10.19-9.5-15.84-9.5-15.84,0,0,1.86,8.38,4.99,12.24-6.21-6.7-7.62-8.81-9.01-11.11-1.39-2.3-2.94-9.79-2.63-12.88-1.1,3.99-.43,7.63-.43,7.63,0,0-5.8-10.77-10.68-21.83-4.89-11.06-9.26-24.67-9.26-24.67,0,0,10.42,22.76,16.42,33.24-4.26-10.16-9.93-23.05-12.57-31.6,8.23,18.08,13.62,27.65,13.62,27.65,0,0-11.02-27.93-13.01-34.43,8.01,16.96,13.05,28.24,13.05,28.24,0,0-8.35-22.47-10.67-29.35,0,0,22.17,51.91,28.26,61.61,6.09,9.7,14.06,17.83,15.77,18.88-6.9-7.84-14.09-16.03-20.53-30.4-6.44-14.37-14.54-35.27-17.95-46.85,6.3,16.61,16.59,37.7,16.59,37.7,0,0-8.21-20.58-10.69-32.34,6.18,18.02,14.42,36.8,16.57,39.38-6.14-14.15-9.1-22.08-11.5-31.9-2.4-9.82-1.5-15.45-1.5-15.45,0,0-3.64-1.9-5.03-3.57ZM42.22,45.09s2.15,3.53,4.66,11.01c-1.3-1.66-4.16-7-4.66-11.01ZM49.24,53.51c1.41,2.54,2.9,8.04,2.9,8.04,0,0-2.9-4.32-2.9-8.04ZM80.12,106.54c-4.29-2.45-8.83-7.88-8.83-7.88,0,0,5.6,8.8,12.46,13.37,2.13,1.42,6,6.34,6,6.34l-6.56-4.46,12.23,11.89c-5.49-4.31-13.04-10.25-16.56-13.12,11.02,10.08,27.04,25.31,27.04,25.31,0,0-12.82-9.4-19.52-15.87-6.7-6.47-12.78-13.33-17.49-21.23-4.7-7.9-5.99-10.01-5.99-10.01,0,0,3.3,2.75,4.69,3.77-4.88-6.27-10.78-17.37-12.76-25.65,2.96,6.99,7.97,16.38,11.15,20.19-4.49-8.14-9.84-23.27-9.84-23.27,0,0,10.07,21.3,15.38,28.84-7.29-14.05-13.46-29.29-15.36-38.79,6.67,17.23,17.19,39.78,23.95,50.57ZM53.09,55.88s-4.27-7.34-3.98-14.41c1.05,4.8,3.98,14.41,3.98,14.41Z"/>
            </g>
            <path class="cls-6" d="M69.13,50.45c.34,8.18-3.04,21.57-3.04,21.57,0,0,4.46-13.92,5.08-16.3.62-2.38-2.03-5.27-2.03-5.27Z"/>
            <path class="cls-6" d="M108.38,120.74c-2.19-2.35-4.17-4.91-6.21-7.45l-3.04-3.82c-1.01-1.28-2.01-2.57-3-3.88,1.27,1.03,2.51,2.1,3.73,3.19,1.22,1.09,2.41,2.21,3.59,3.34,1.17,1.14,2.34,2.29,3.45,3.49,1.11,1.21,2.17,2.46,3.11,3.82l-1.63,1.3Z"/>
            <path class="cls-6" d="M104.3,113.04c-.58-1.02-1.19-2.03-1.87-3.01-.67-.98-1.38-1.95-2.13-2.89-1.49-1.88-3.09-3.7-4.8-5.4,1.95,1.44,3.8,3.02,5.57,4.7.89.84,1.75,1.71,2.58,2.62.84.9,1.62,1.86,2.39,2.85l-1.75,1.14Z"/>
            <path class="cls-6" d="M127.55,129.95c-2.37-2.15-4.7-4.34-6.94-6.63-2.23-2.29-4.39-4.66-6.42-7.13-2.02-2.48-3.91-5.07-5.56-7.81-1.67-2.73-3.05-5.62-4.12-8.61,1.26,2.92,2.82,5.69,4.63,8.28,1.8,2.59,3.82,5.03,5.97,7.34,2.15,2.31,4.42,4.5,6.76,6.61,2.35,2.11,4.78,4.11,7.25,6.08l-1.57,1.86Z"/>
            <path class="cls-6" d="M125.31,126.3c-.9-1.07-1.78-2.15-2.63-3.26-.85-1.1-1.69-2.21-2.51-3.33-1.63-2.24-3.21-4.52-4.72-6.83,1.83,2.07,3.71,4.08,5.64,6.05.96.98,1.94,1.94,2.94,2.89.99.95,2,1.87,3.02,2.78l-1.74,1.7Z"/>
            <path class="cls-6" d="M119.53,113.53c-1.36-1.44-2.52-3-3.58-4.6-1.06-1.6-2.02-3.25-2.91-4.93-.89-1.68-1.71-3.39-2.47-5.11-.76-1.73-1.48-3.47-2.08-5.26.78,1.71,1.69,3.36,2.62,4.99.94,1.62,1.93,3.21,2.98,4.76,1.04,1.55,2.16,3.04,3.33,4.46,1.18,1.42,2.43,2.76,3.79,3.92l-1.68,1.77Z"/>
            <path class="cls-6" d="M85.76,74.88c-.97-2.21-1.58-4.52-1.98-6.85-.11-.58-.19-1.17-.27-1.75-.07-.59-.14-1.17-.19-1.76-.12-1.17-.16-2.35-.19-3.52-.06-2.34.08-4.69.39-7.01.08-.58.19-1.16.28-1.74.11-.58.24-1.15.37-1.72.3-1.14.63-2.28,1.16-3.33-.47,2.25-.56,4.56-.57,6.84,0,2.29.11,4.58.34,6.85.23,2.27.56,4.52,1.03,6.74.47,2.21,1.07,4.39,1.91,6.42l-2.29.82Z"/>
            <path class="cls-6" d="M97.97,99.21c-.32-.71-.64-1.42-.9-2.15-.14-.36-.28-.73-.4-1.1l-.34-1.11c-.12-.37-.22-.74-.32-1.12-.1-.37-.22-.74-.3-1.12-.17-.75-.35-1.51-.48-2.26-.14-.76-.26-1.52-.37-2.28-.09-.76-.19-1.53-.23-2.3-.1-1.54-.08-3.09.14-4.63.26,1.5.58,2.98.95,4.44.36,1.47.78,2.92,1.24,4.35.45,1.43.96,2.84,1.52,4.23.54,1.39,1.18,2.73,1.84,4.05l-2.33,1Z"/>
            <path class="cls-6" d="M107.75,78.07c-.55-1.13-1.13-2.26-1.75-3.38-.63-1.11-1.29-2.23-1.97-3.34l-2.08-3.33c-.7-1.12-1.4-2.24-2.07-3.41,1.1.79,2.09,1.7,3.03,2.64.94.95,1.83,1.95,2.67,3.01.41.53.83,1.06,1.21,1.62.4.55.76,1.12,1.11,1.7.69,1.17,1.32,2.39,1.79,3.7l-1.94.78Z"/>
            <path class="cls-6" d="M-12.86-20.88C-6.86-18.17-1.23-14.58,3.9-10.4,9.08-6.27,13.76-1.55,18.1,3.44c2.15,2.52,4.22,5.08,6.17,7.78,1.93,2.74,3.62,5.59,5.18,8.5.78,1.45,1.56,2.91,2.3,4.37l2.22,4.4,1.11,2.2c.38.72.75,1.46,1.14,2.18.78,1.44,1.56,2.88,2.56,4.19-1.18-1.15-2.13-2.53-3.06-3.89-.93-1.37-1.78-2.77-2.65-4.18l-5.04-8.46c-1.71-2.79-3.41-5.57-5.36-8.14l-.73-.96-.76-.96c-.5-.64-1.02-1.27-1.53-1.91l-1.55-1.89-1.58-1.86C14.41,2.32,12.19-.08,9.92-2.41c-.57-.58-1.13-1.17-1.71-1.74l-1.75-1.7c-.59-.57-1.2-1.1-1.79-1.66l-.89-.83-.92-.81c-4.87-4.34-10.12-8.24-15.72-11.71Z"/>
            <path class="cls-6" d="M7.67-7.11c1.06,1.1,1.98,2.32,2.83,3.55.85,1.24,1.62,2.53,2.35,3.83.73,1.3,1.41,2.63,2.02,3.99.61,1.36,1.18,2.74,1.62,4.17-.86-1.22-1.67-2.46-2.49-3.69l-2.41-3.7c-.82-1.22-1.63-2.43-2.49-3.61-.85-1.18-1.73-2.32-2.65-3.41l1.23-1.13Z"/>
            <path class="cls-6" d="M-19.86,21.62c3.8,1.6,7.43,3.58,10.95,5.74.87.55,1.74,1.1,2.61,1.66l2.56,1.73c1.69,1.19,3.35,2.41,4.99,3.67,1.62,1.28,3.23,2.57,4.79,3.92.79.67,1.55,1.37,2.31,2.06.78.68,1.51,1.4,2.26,2.12,2.96,2.87,5.77,5.92,8.2,9.25-2.87-2.96-5.86-5.75-8.93-8.45-1.54-1.34-3.09-2.68-4.68-3.97-1.57-1.31-3.17-2.58-4.79-3.83-.81-.62-1.61-1.26-2.43-1.87l-2.46-1.83-2.49-1.8c-.84-.58-1.68-1.17-2.51-1.76-3.38-2.32-6.82-4.54-10.36-6.65Z"/>
            <path class="cls-6" d="M22.77,64.62c-.08-.3-.19-.67-.3-1-.11-.34-.23-.68-.36-1.03-.26-.68-.53-1.36-.83-2.03-.6-1.34-1.27-2.66-2.02-3.94-.76-1.27-1.55-2.53-2.45-3.72-.43-.61-.9-1.19-1.36-1.78-.47-.58-.97-1.14-1.46-1.71.55.51,1.11,1.01,1.65,1.53.53.53,1.07,1.06,1.57,1.62,1.04,1.1,1.99,2.27,2.91,3.48.92,1.21,1.76,2.48,2.54,3.79.4.66.76,1.33,1.12,2.01.35.7.68,1.37.98,2.15l-2,.62Z"/>
            <path class="cls-6" d="M17.85,63.91c-2.89-2.3-5.74-4.64-8.56-7.02-1.41-1.19-2.8-2.41-4.17-3.64-1.37-1.24-2.72-2.5-3.95-3.87,1.35,1.25,2.81,2.37,4.28,3.47,1.47,1.1,2.97,2.17,4.47,3.22,3.01,2.1,6.07,4.15,9.14,6.15l-1.22,1.7Z"/>
            <path class="cls-6" d="M15.38,61.38c-4.52-1.37-9.44-4.72-15.66-10.79-6.22-6.07-10.62-8.69-15.44-13.18-4.82-4.49-7.45-5.84-9.1-8.46.09,3.29,4.07,9.02,4.07,9.02,0,0-1.9-1.43-4.05-2.3,6.17,5.05,19.9,16.83,19.9,16.83,0,0-7.55-7.98-11-11.05s-5.17-7.04-5.17-7.04c0,0,10.14,7.86,12.24,9.92,2.1,2.06,4.81,5.04,4.81,5.04l-3.7-1.72s3.64,3.08,5.35,3.7c3.93,3.37,7.93,7.76,7.93,7.76l3.03-.15s6.51,4.77,6.77,2.42Z"/>
            <path class="cls-6" d="M-18.2,33.1c2.58,1.29,5.06,2.77,7.48,4.33,1.22.77,2.4,1.59,3.59,2.4,1.18.83,2.34,1.67,3.51,2.52,1.15.87,2.3,1.74,3.42,2.63l1.68,1.36.84.68.82.7c2.18,1.87,4.34,3.8,6.26,5.97-2.31-1.73-4.63-3.41-6.93-5.12l-6.91-5.11-6.89-5.14c-2.3-1.72-4.59-3.44-6.86-5.22Z"/>
            <path class="cls-6" d="M7.61,45.46c-.08-.07-.18-.15-.27-.23-.06-.27-.14-.54-.23-.8-.17-.48-.37-.94-.61-1.38-.47-.87-1.04-1.66-1.68-2.35.41.86.69,1.75.87,2.65.04.21.07.42.1.63C.34,39.78-11.77,31.62-15.31,29.62c-4.03-2.28-9.55-5.42-11.86-7.27,4.66,4.8,8.67,7.37,11.76,9.49,3.1,2.12,13.49,9.04,19.71,14.05,6.22,5.01,10.48,11.28,11.62,16.68l2.55.5-2.64-7.2,5.1,5.15.3-1.02c-4.17-5.98-9.85-11.23-13.61-14.53Z"/>
            <path class="cls-6" d="M78.98,26.14c1.32,1.9,2.37,3.98,3.32,6.09.94,2.12,1.76,4.29,2.51,6.48.77,2.18,1.43,4.4,2.09,6.62.64,2.22,1.24,4.45,1.83,6.68l1.69,6.71,1.63,6.71c.56,2.23,1.1,4.47,1.72,6.68.61,2.22,1.27,4.42,2.18,6.54-1.19-1.99-2.04-4.16-2.83-6.33-.78-2.18-1.47-4.39-2.12-6.6-.66-2.21-1.25-4.44-1.86-6.67l-1.76-6.69c-.57-2.23-1.16-4.46-1.75-6.68-.58-2.22-1.22-4.43-1.86-6.64-.66-2.2-1.34-4.39-2.11-6.55-.77-2.16-1.63-4.29-2.69-6.34Z"/>
            <path class="cls-6" d="M69.52,11.4c9.51,7.85,14.49,19.06,20.25,38.14,5.76,19.08,11.31,41.94,22.81,59.12-8.61-16.04-15.27-36.56-17.65-48.76-2.38-12.2-6.77-23.62-6.77-23.62,0,0,7.39,14.8,9.73,23.27-1.46-9.54-8.21-28.25-14.29-36.66-6.07-8.41-12.28-14.43-15.15-15.6,7.97,7.28,11.23,13.31,11.23,13.31,0,0-5.71-7.41-10.16-9.2Z"/>
            <path class="cls-6" d="M99.64,70.23c.51,1.26.94,2.53,1.37,3.81.23.63.42,1.27.64,1.91.2.64.4,1.27.62,1.91.41,1.27.8,2.55,1.19,3.84.38,1.29.76,2.58,1.05,3.91-.7-1.17-1.29-2.39-1.82-3.63-.53-1.24-1.01-2.51-1.42-3.8-.2-.65-.39-1.29-.57-1.95-.17-.65-.34-1.31-.47-1.97-.28-1.32-.5-2.66-.58-4.02Z"/>
            <path class="cls-6" d="M142.6,106.52c-.29-1.94-.66-3.91-1.07-5.86-.41-1.95-.88-3.89-1.39-5.82-.53-1.92-1.11-3.83-1.78-5.72-.68-1.88-1.45-3.73-2.35-5.52,1.06,1.71,1.98,3.5,2.83,5.32.83,1.84,1.59,3.71,2.29,5.6.69,1.9,1.33,3.81,1.92,5.75.59,1.94,1.13,3.87,1.61,5.87l-2.05.38Z"/>
            <path class="cls-6" d="M133.85,72.36c-.59-.94-1.28-1.87-2-2.77-.72-.9-1.5-1.78-2.28-2.64-.79-.87-1.6-1.71-2.43-2.54-.83-.83-1.67-1.66-2.53-2.46,1.22.36,2.26.96,3.25,1.63.49.34.96.71,1.42,1.08.46.37.93.74,1.38,1.14.9.78,1.78,1.59,2.6,2.47.41.44.82.89,1.19,1.37.19.24.38.47.56.73.18.25.35.51.52.77l-1.69,1.23Z"/>
            <path class="cls-6" d="M127.95,62.11c-.23-.48-.63-.97-1.06-1.45-.43-.48-.92-.94-1.43-1.38-.51-.44-1.04-.88-1.58-1.3-.54-.42-1.1-.84-1.67-1.24.67.19,1.33.43,1.99.68.65.27,1.3.54,1.93.87.63.33,1.26.67,1.86,1.11.6.43,1.2.91,1.72,1.59l-1.76,1.13Z"/>
            <path class="cls-6" d="M125.48,75.95c-.22-.88-.47-1.79-.73-2.69-.26-.9-.55-1.78-.86-2.67-.31-.88-.64-1.76-1.02-2.61-.38-.85-.79-1.7-1.34-2.47.68.66,1.25,1.43,1.79,2.21.54.79,1.04,1.6,1.51,2.43.48.83.93,1.67,1.36,2.52.43.85.85,1.7,1.25,2.59l-1.98.68Z"/>
            <path class="cls-6" d="M100,53.17c-1.81-5.99-6.99-19.29-9.67-23.92,2.87,7.48,5.07,15.63,5.07,15.63,0,0-5.01-13.44-8.51-19.26-3.5-5.83-10.77-13.89-10.77-13.89,0,0,5.64,4.63,8.85,8.4-4.39-6.39-7.57-9.29-12.01-12.05-4.44-2.77-12.25-7.34-12.25-7.34,0,0,4.49,4.85,6.98,8.89-7.25-8.05-18.8-15.73-27.62-20.9-8.81-5.18-30.63-10.49-30.63-10.49,0,0,16.18,1.96,23.76,4.81C24.12-22.3,1.51-26.44,1.51-26.44c0,0,7.15-.22,11.32.67-10.82-4.33-23.18-6.31-26.74-6.35,5.88-1.07,9.47-.16,9.47-.16l-20.01-6.12s16.95,2.88,26.6,5.94c9.65,3.06,30,11.85,36.88,15.56,6.88,3.71,22.84,15.61,22.84,15.61l-4.89-6.56s7.33,8.78,13.89,11.11l-3.69-4.9s4.48,4.78,8.27,7.2,14.28,4.57,14.28,4.57l-3.15.06-6.79-1.34,6.53,5.03,4.11,4.1s2.3,3.93,8.07,9.14c5.77,5.21,12.74,13.56,12.74,13.56,0,0-7.56-7.68-12.53-10.98,10.4,10.65,15.13,15.89,18.18,19.75-6.88-6.75-14.25-13.45-14.25-13.45,0,0,13.04,14.03,18,20.71-7.55-7.45-16.16-16.49-19.17-19.03,12.27,13.53,26.5,29.16,32.97,42.57-9.66-15.96-23.83-30.6-35.79-42.13,11.86,13.04,21.62,24.62,21.62,24.62,0,0-16.66-16.02-18.95-18.45,13.42,14.16,13.72,14.53,13.72,14.53,0,0-9.8-8.76-13.34-9.18l.07,4.73-1.77-1.18Z"/>
            <path class="cls-6" d="M-11.34-26.11c12.83,1.7,32.53,9.57,41.85,14.37C39.84-6.94,52.45.28,63.05,10.23c-4.97-3.18-6.63-4.04-6.63-4.04,0,0,7.42,9.18,10.74,17.4-5.3-8.47-10.94-14.8-10.94-14.8,0,0,4.88,7.68,8.17,13.33,3.29,5.65,10.07,14.35,13.62,15.62l1.96,8.95s-12.9-17.81-17.39-24.95c-4.48-7.14-10.56-15.84-16.34-20.63,2.88,3.6,5.42,8.4,5.42,8.4,0,0-6.91-9.19-10.91-12.65-4.01-3.45-10.59-6.95-10.59-6.95l9.59,7.66-14.69-9.31,9.69,7.92-13.23-7.92s8.8,7.08,12.07,10.56c-8.41-6.81-17.21-12.54-17.21-12.54,0,0,9.4,8.21,14.5,13.12,5.11,4.91,9.68,11.74,11.62,15.2,1.94,3.46,8.25,11.86,10.72,14.76-7.5-7.64-10.15-11.06-12.68-15.16-2.53-4.09-6.11-8.38-9.02-11.98,2.63,4.64,3.96,9.52,3.96,9.52,0,0-3.87-7.82-8.36-13.21-4.49-5.38-11.72-12.12-19.93-16.44C-1.03-22.21-11.34-26.11-11.34-26.11Z"/>
            <path class="cls-6" d="M75.54,33.05c-.56-.73-1.09-1.46-1.62-2.2-.53-.74-1.05-1.48-1.56-2.23-.51-.75-1.01-1.51-1.48-2.28-.47-.77-.94-1.55-1.33-2.36.57.7,1.19,1.35,1.81,1.99.63.64,1.28,1.26,1.93,1.87.65.61,1.32,1.21,1.99,1.8.67.59,1.35,1.18,2.03,1.74l-1.76,1.68Z"/>
            <path class="cls-6" d="M15.69-30.32c3.17.82,6.32,1.7,9.46,2.67,3.13.98,6.24,2.02,9.3,3.26,3.06,1.22,6.04,2.69,8.9,4.34,2.86,1.65,5.59,3.49,8.3,5.34,2.69,1.9,5.33,3.75,8.1,5.44,2.76,1.7,5.62,3.26,8.49,4.8,2.88,1.52,5.81,2.96,8.76,4.34,2.95,1.4,5.94,2.72,8.95,4.02-3.14-.93-6.23-2.05-9.28-3.23-3.05-1.21-6.07-2.49-9.03-3.91-2.97-1.4-5.87-2.95-8.73-4.6-2.84-1.67-5.57-3.58-8.24-5.42-2.67-1.87-5.37-3.69-8.15-5.36-2.76-1.69-5.64-3.16-8.6-4.51-5.93-2.65-12.11-4.83-18.22-7.17Z"/>
          </g>
          <g>
            <path class="cls-5" d="M323.18,225.21c1.73-18.9,22.38-26.93,33.59-27.47,11.21-.54,31.21,7.15,38.91,11.67,7.7,4.52,23.36,14.72,32.46,6.47,9.09-8.24,5.1-35.08-12.68-51.92-17.78-16.84-54.77-40.14-62.82-56.55-2.82,7.5,4.37,17.78,7.57,21.24-16.39-8.52-36.62-20.3-49-23.99-12.37-3.7-61.72-11.74-74.06-16.24,5.58,9.01,20.44,15.73,20.44,15.73,0,0-30.95-3.87-48.92,0-17.97,3.86-43.9,7.62-60.65,26.18,24.45-9.54,42.28-14.58,67.52-10.83-17.14,9.73-57.92,34.61-71.83,36.93,12.52,3.81,27.35,2.58,37.15-.85-12.81,7.09-28.36,10.14-32.43,10.49,6.35,6.54,16,8.57,24.24,7.59-16.74,3.05-30.36,2.27-30.36,2.27,0,0,17.34,12.01,41.25,11.28-15.96,12.91-31.76,22.74-40.03,25.72,11.94,2.29,17.83.53,34.53-7.3,16.7-7.82,37.04-24.03,37.04-24.03,0,0-19.24,19.92-13.02,34.3,2.21-9.28,14.91-20.6,31.87-30.71,16.96-10.11,34.96-13.71,34.96-13.71,0,0-7.02,3.36-8.75,8.87,4.95-.72,11.19-.67,11.19-.67l-6.63,3.31s3.63,3.22,10.37,4.14c2.1,4.26,14.35,7.5,14.35,7.5,0,0-7,1.36-11.71,5.24,5.98.08,10.82.7,10.82.7,0,0-7.83,2.13-9.65,3.54,5.9,2.08,7.94,2.81,7.94,2.81l-7.55.46s3.57,4.7,6.95,5.62c-6.43.15-8.18,1.06-8.18,1.06,0,0,3.24,4.12,11.91,7.16-3.91.64-6.47,2.1-6.47,2.1,0,0,1.17,1.63,6.11,3.78,1.31,4.35,10.01,5.35,16.11,4.62l17.48-6.5Z"/>
            <g>
              <path class="cls-5" d="M227.68,185.93s-15.69,11.28-16.48,12.5c0,0,3.52-5.52,5.46-7.01,0,0-6.77,5.51-7.82,7.29,0,0,4.07-10.79,14.59-18.79l15.62-8.61-11.38,14.61Z"/>
              <path class="cls-5" d="M183.86,199.24l-14.72,7.38,1.24-2.53-10.35,4.53s-6.76,2.95-7.74,2.34c0,0,9.78-4.88,12.62-9.46l19.17-14.35,5.35.42,5.86,4.67-11.43,7Z"/>
              <path class="cls-5" d="M169.02,184.66c.26,0,9.23-1.5,10.04-1.77,0,0-7.56,1.08-19.83-2.5l-8.77-.9s8.58,5.25,18.56,5.17Z"/>
              <path class="cls-5" d="M205.04,183.59l1.53-2.37s-15.66,3.17-20.13,3.13l7.36-3.17s2.35-.28,3.62-.43c1.27-.15,12.92-3.93,13.85-5.05l-2.32-.95s-12.5,2.27-14.66,2.35c0,0,12.3-4.29,13.42-4.6l-6.65-.58,19.62-6.55,3.94-2.54-14.31,3.92-13.23,3.07,5.2-5.29s-7.68,4.11-9.64,4.54l-7.86,1.18,6.16-3.22s8.26-3.06,10.07-4.27c0,0-16.01,5.26-20.18,4.46,0,0,24.88-9.05,30.24-13.38l-14.04,4.6s-11.94,2.12-14.01,1.88c0,0,15.87-4.52,18.38-6.38,0,0-11.98,4.51-18.52,3.74,0,0,7.82-1.46,11.75-3.61l13.09-5.71,26.21-13.68,18.07,7.43,9.08,3.42-7.67,8.43,8.71.35-5.88,4.08-9.28,3.43-8.99.2-4.24,11.53s-19.96,10.5-28.68,10.03Z"/>
              <path class="cls-5" d="M158.03,169.44c2.16-.19,12.74-2.05,16.89-3.47,0,0-15.37,2.3-21.16.47l-4.84.15,5.32,3.31,3.79-.46Z"/>
              <path class="cls-5" d="M184.83,118.57l3.72-2.02,18.24-1.85-11.04.22,12.6-2.72s-21.92,1.45-32.42,4.48c0,0,6.63-3.86,13.39-5.03,6.76-1.17,9.74-1.16,9.74-1.16l11.04-3.05s5.48-1.98,8.92-2.26c3.44-.28,12.99.93,12.99.93l-10.06,9.07-8.6,3.51-28.54-.12Z"/>
              <path class="cls-5" d="M215.89,142.16c-4.82,2.46-19.73,9.03-22.68,9.15l-.63-1.81s-15.41,3.8-18.29,4.36l-2.73.58s29.1-10.48,34.11-14.66c5.01-4.18,33.45-19.7,34.07-20.11.62-.41,15.22-6.31,20.38-6.97,0,0-6.94-.46-11.58.58,0,0,2.64-2.86,9.11-3.03,0,0-8.01-.86-10.64-.68-2.63.18-4.86-1.14-4.86-1.14l17.16-2.62s-10.66-5.18-12.06-7.6l2.16-.76s16.64,5.79,19.83,5.81c3.18.02,5.74-.37,5.74-.37l20.57,4.65s-8.53.54-14.07,2.46l5.4.82s8.85-1.52,14.17-1.22c0,0,36.92,11.11,48.12,19.46,0,0-13.19-3.86-17.2-4.71l18.07,8.11s23.08,14.57,36.1,19.2c0,0-9.05-.07-11.77-1.16l5.14,3.74s15.87,6,21.42,5.79c0,0-4.39,3.64-9.5,2.9-5.1-.74-21.8-4.44-21.9-4.16-.1.28,6.05,1.93,6.05,1.93,0,0,18.48,7.75,19.72,10.01l-5.78-.31s7,5.7,11.92,5.62c4.92-.07,7.5-.69,7.5-.69,0,0-3.18,2.99-8.92,2.3l7.51,1.62s-1.68,1.25-3.2,1.17c0,0,8.34,4.39,14.39,3.77,0,0-3.15,1.6-11,.2-7.86-1.4-13.5-1.26-13.5-1.26,0,0,6.56,10.54,24.17,12.2,0,0-1.93,1.57-5.8.96-3.87-.61-16.72-3.92-16.72-3.92,0,0,1.48,3.34,11.46,5.27,9.97,1.93,13.93.66,15.4-1.5,1.47-2.16,2.57-5.73-.85-11.29,0,0,4.84,3.18,7.33,14.17,2.5,10.99-6.17,14.79-6.17,14.79,0,0-6.1,2.43-8.89,1.48-2.78-.95-11.97-5.16-18.07-9.64-6.1-4.48-17.57-7.38-17.57-7.38l-21.19-4.76s14.74-2.06,26.41,1.92c11.68,3.98,13.02,6.87,13.02,6.87,0,0,6.94,4.8,10.31,5.33,3.38.53,11.92.42,14.99-4.9,0,0-7.57,1.25-11.71.18s-7.41-.81-7.41-.81l-14.19-8.02-2.71-4.94-9.97-4.12-16.96.82-16.49-6.7s8.81,2.35,13.7,1.71l5.99-.38-13.17-1.91,20.21-.92-1.77-1.16-22.39-3.92-6.31-.11s4.28-1.37,6.21-1.47c0,0-29.74-1.47-30.51-1.78-.77-.31,17.38-2.18,20.21-1.77,0,0,1.87-1.66,4.56-1.8l3.51-.59s-3.66-1.25-8.66-1c-5,.24-18.57,1.66-18.57,1.66l-8.64-1.64s-15.27.68-16.6-.43c0,0,11.54-1.85,17.65-3.79,6.11-1.94,17.83-3.67,17.83-3.67,0,0-17.64-1.19-21.36-.93-3.72.26-12.52,3.68-16.87,2.79l3.37-1.61s-8.87,1.38-11.07.5c-2.21-.89-9.4-1.53-9.4-1.53l53.19-8.65-14.58-2.07s-8.81,2.31-12.54,4.08c0,0,4.92-3.77,8.2-4.89,0,0-6.58,1.41-11.68,4.41-5.1,2.99-5.23,3.05-5.23,3.05l-4.5,1.46s6.17-6.67,11.48-8.49l-.71-1.21s-8.52.15-13.41.9c0,0-12.22-3.14,22.95-7.47l17.14.41s-17.27-5.35-24.69-4.55l.51-1.65s-29.74,5.62-31.64,5.25c-1.9-.37,5.3-2.29,7.91-3.73,2.61-1.44,9.67-2.66,9.67-2.66l-5.52-1.04-26.17,4.82-17.09.42-17.94,8.45Z"/>
            </g>
            <path class="cls-1" d="M323.18,225.21c.64-2.73,1.52-5.32,2.75-7.72,1.24-2.4,2.78-4.6,4.59-6.58,3.6-3.99,8.27-6.97,13.27-9.04,2.51-1.03,5.11-1.84,7.76-2.4,1.32-.28,2.66-.49,4-.61,1.34-.13,2.66-.14,4-.06,2.69.15,5.39.62,8.06,1.2,2.67.6,5.32,1.32,7.95,2.15,5.24,1.65,10.41,3.63,15.36,5.98,1.24.59,2.46,1.21,3.64,1.87,1.17.67,2.37,1.4,3.57,2.1,2.4,1.42,4.84,2.8,7.38,4.03,2.54,1.23,5.17,2.32,7.94,3.07,2.76.74,5.71,1.16,8.68.69,1.48-.23,2.94-.71,4.27-1.44,1.33-.74,2.52-1.69,3.52-2.86.99-1.16,1.73-2.48,2.3-3.84.56-1.37.95-2.78,1.22-4.2.53-2.85.59-5.74.38-8.58-.22-2.84-.72-5.65-1.43-8.39-1.43-5.48-3.7-10.72-6.63-15.55-1.47-2.42-3.11-4.73-4.91-6.91-.9-1.09-1.84-2.15-2.83-3.17-.98-1.02-2.01-2-3.04-2.94-4.12-3.79-8.44-7.31-12.78-10.78-8.69-6.93-17.56-13.6-26.09-20.65-4.26-3.53-8.44-7.14-12.36-10.99-1.96-1.93-3.84-3.92-5.57-6.02-1.73-2.09-3.32-4.3-4.49-6.66h0c-.29-.58-.99-.82-1.57-.53-.28.14-.47.37-.58.64-.79,2.08-.86,4.31-.55,6.38.3,2.08.96,4.05,1.77,5.92.82,1.87,1.8,3.64,2.9,5.33,1.1,1.69,2.29,3.31,3.68,4.83l1.42-1.86c-9.62-5.02-19.11-10.33-28.83-15.28-2.43-1.24-4.88-2.44-7.36-3.61-2.48-1.16-4.98-2.28-7.54-3.3-1.28-.51-2.57-1-3.89-1.43-1.32-.44-2.67-.83-4-1.17-2.67-.68-5.33-1.27-7.99-1.84-10.66-2.26-21.35-4.27-32-6.4-5.33-1.06-10.65-2.14-15.95-3.3-2.65-.58-5.29-1.18-7.91-1.83-2.61-.65-5.24-1.34-7.71-2.21h-.02c-.65-.24-1.36.11-1.59.75-.13.37-.07.77.12,1.08,1.23,1.97,2.74,3.69,4.36,5.24,1.62,1.56,3.36,2.96,5.16,4.26,1.8,1.3,3.67,2.49,5.57,3.61,1.92,1.12,3.84,2.15,5.88,3.11l.67-2.39c-4.86-.57-9.7-.98-14.57-1.28-4.86-.29-9.74-.47-14.62-.45-4.88.03-9.78.22-14.67.82l-1.83.25-1.83.3-1.83.36-1.77.38-7.12,1.47c-4.76.99-9.52,2.06-14.24,3.36-4.72,1.29-9.38,2.84-13.92,4.74-2.27.96-4.5,2.01-6.68,3.16-2.18,1.15-4.31,2.41-6.36,3.79-2.05,1.38-4.04,2.86-5.91,4.48-1.88,1.62-3.66,3.35-5.33,5.18-.48.52-.44,1.33.08,1.81.37.34.89.42,1.33.25h0c5.37-2.09,10.76-4.11,16.22-5.89,5.46-1.77,10.98-3.3,16.59-4.36,5.61-1.07,11.29-1.66,16.99-1.72,5.7-.07,11.4.39,17.06,1.23l-.45-2.42c-5.88,3.35-11.69,6.77-17.53,10.14-5.84,3.38-11.69,6.73-17.58,9.99-5.89,3.26-11.83,6.45-17.85,9.41-3.01,1.48-6.05,2.9-9.13,4.19-1.54.64-3.09,1.25-4.64,1.78-1.56.53-3.13,1-4.67,1.27h-.01c-.7.12-1.17.79-1.05,1.49.09.5.45.88.9,1.01,3.09.94,6.26,1.56,9.45,1.94,3.19.38,6.4.51,9.6.43,3.2-.08,6.39-.38,9.56-.91,3.16-.53,6.29-1.27,9.35-2.33l-1.04-2.33c-2.45,1.35-4.99,2.56-7.59,3.64-2.6,1.08-5.25,2.05-7.94,2.91-2.69.86-5.41,1.62-8.15,2.27-1.37.33-2.75.62-4.13.89-1.37.26-2.78.5-4.1.63h-.01c-.7.07-1.21.69-1.14,1.39.03.3.16.57.35.77,1.61,1.66,3.47,3.08,5.46,4.22,1.99,1.15,4.13,2.03,6.32,2.67,4.39,1.27,9,1.6,13.52,1.07l-.38-2.5c-2.48.43-4.97.84-7.47,1.15-2.5.33-5.01.57-7.52.77-2.51.2-5.03.32-7.55.39-2.51.06-5.06.07-7.52-.04h-.03c-.69-.03-1.28.5-1.31,1.19-.02.45.2.86.55,1.1.82.55,1.59,1.01,2.39,1.48.8.46,1.61.9,2.42,1.33,1.63.85,3.3,1.63,4.98,2.36,3.37,1.46,6.85,2.67,10.39,3.65,3.54.98,7.15,1.69,10.8,2.16,3.65.45,7.33.62,11.01.52l-.82-2.21c-6.16,4.98-12.52,9.71-19.1,14.1-3.29,2.2-6.63,4.31-10.05,6.27-1.71.98-3.44,1.92-5.19,2.8-1.75.87-3.53,1.69-5.32,2.35h0c-.64.24-.97.94-.74,1.58.15.42.52.71.93.79,3.33.64,6.78,1.08,10.27.91,3.49-.16,6.91-.95,10.14-2.04,3.24-1.09,6.35-2.41,9.43-3.78,1.54-.69,3.06-1.39,4.58-2.1.76-.35,1.52-.72,2.29-1.09.76-.38,1.52-.75,2.27-1.15,6-3.13,11.7-6.73,17.28-10.49,5.57-3.78,10.99-7.72,16.3-11.88l-1.59-1.75c-1.15,1.22-2.19,2.45-3.22,3.72-1.02,1.27-2.01,2.57-2.95,3.9-1.88,2.67-3.59,5.46-5.03,8.43-1.42,2.96-2.58,6.11-3.1,9.44-.26,1.66-.35,3.37-.19,5.08.15,1.71.58,3.41,1.26,5.01.25.59.93.86,1.52.61.34-.15.58-.44.67-.78v-.02c.39-1.54,1.02-3.05,1.83-4.48.81-1.44,1.76-2.81,2.8-4.13,2.08-2.64,4.49-5.05,7.03-7.32,5.09-4.53,10.71-8.5,16.51-12.15,2.91-1.82,5.85-3.55,8.9-5.1,3.04-1.56,6.16-2.97,9.33-4.26,3.17-1.29,6.39-2.45,9.66-3.49,1.63-.52,3.27-1,4.92-1.46,1.64-.45,3.32-.88,4.95-1.22l-.69-2.08c-.54.27-1.01.53-1.49.82-.48.29-.94.59-1.4.91-.91.63-1.79,1.33-2.61,2.1-.82.77-1.58,1.62-2.25,2.57-.33.47-.63.97-.9,1.5-.26.53-.49,1.08-.68,1.64-.19.57.13,1.19.7,1.37.16.05.33.07.49.04h.02c1.8-.26,3.64-.42,5.48-.52.92-.05,1.85-.09,2.77-.11.92-.02,1.86-.04,2.77-.04l-.48-2.06-6.63,3.31h-.02c-.53.27-.74.92-.48,1.45.06.13.16.24.26.33.13.11.22.18.33.27.1.08.21.16.31.23.21.15.41.29.63.43.42.27.85.53,1.28.77.87.48,1.77.89,2.69,1.25.92.34,1.86.66,2.81.89.47.13.96.22,1.44.32.48.09.97.16,1.45.24l-.82-.59c.4.8.96,1.4,1.52,1.92.57.52,1.17.95,1.79,1.35,1.23.79,2.5,1.42,3.79,1.99,1.29.57,2.6,1.07,3.92,1.54,1.33.46,2.64.88,4.02,1.25l.07-2.08c-1.14.24-2.18.53-3.24.87-1.06.34-2.1.73-3.12,1.17-1.02.44-2.03.93-3,1.5-.98.56-1.92,1.2-2.81,1.93-.45.37-.52,1.03-.15,1.49.2.25.5.38.8.39h0c1.79.03,3.58.1,5.37.21.89.06,1.79.12,2.68.2.89.08,1.79.17,2.66.27l-.14-2.05c-.85.23-1.67.47-2.51.73-.83.25-1.66.52-2.49.79-.83.28-1.65.57-2.48.9-.41.17-.83.34-1.24.54-.42.21-.83.41-1.3.76-.46.34-.55.99-.21,1.44.13.17.3.29.48.36h.02s7.93,2.81,7.93,2.81l.29-2.01-7.55.46h-.01c-.57.04-1,.52-.96,1.09.01.21.09.41.21.57.51.65,1.01,1.22,1.55,1.8.54.57,1.1,1.12,1.7,1.65.6.52,1.23,1.02,1.93,1.46.69.44,1.46.83,2.33,1.08l.25-2.02c-1.4.04-2.8.1-4.22.25-.71.07-1.41.17-2.13.3-.36.06-.72.14-1.08.23-.18.05-.36.1-.55.16-.09.03-.19.06-.29.1l-.16.06-.09.04s-.05.02-.12.06h0c-.5.26-.69.86-.44,1.36.03.06.07.13.12.18.13.17.23.27.34.39.11.12.22.23.33.34.22.22.45.44.68.64.46.41.94.79,1.42,1.16.97.73,1.99,1.38,3.04,1.99,1.05.6,2.12,1.13,3.22,1.63.55.25,1.1.47,1.66.7l1.68.63.17-1.95c-.59.1-1.17.21-1.75.36-.58.14-1.15.3-1.72.48-.57.18-1.12.38-1.68.61-.28.11-.55.23-.82.36-.28.13-.53.25-.84.42h-.01c-.47.27-.64.86-.38,1.33.02.04.05.08.08.12.11.15.16.19.23.27.06.07.13.14.19.19.13.13.26.23.38.35.26.21.52.41.78.6.53.37,1.07.71,1.61,1.01.55.31,1.1.59,1.66.85.56.26,1.13.51,1.7.75l-.5-.56c.28.87.82,1.63,1.45,2.2.63.58,1.34,1,2.07,1.33,1.46.66,2.97,1,4.48,1.2,1.51.19,3.02.24,4.52.18,1.5-.07,2.99-.24,4.45-.55-1.49.03-2.97,0-4.43-.13-1.46-.13-2.92-.33-4.33-.66-1.41-.32-2.79-.76-4-1.42-1.2-.64-2.21-1.57-2.5-2.67-.06-.24-.23-.43-.44-.53l-.06-.03c-.53-.25-1.06-.51-1.58-.77-.52-.27-1.03-.55-1.52-.85-.5-.29-.98-.61-1.43-.94-.23-.16-.44-.34-.64-.51-.1-.09-.2-.18-.28-.26-.05-.04-.08-.09-.12-.13-.03-.03-.09-.1-.07-.07l-.32,1.45c.19-.1.45-.23.69-.34.24-.11.49-.22.74-.32.5-.2,1.02-.38,1.53-.55.52-.16,1.04-.31,1.57-.44.53-.13,1.06-.23,1.6-.33.55-.1.92-.62.82-1.17-.06-.37-.32-.65-.64-.78h-.01s-1.6-.61-1.6-.61c-.52-.22-1.06-.43-1.57-.67-1.04-.47-2.06-.97-3.04-1.54-.98-.57-1.93-1.18-2.82-1.85-.44-.34-.88-.69-1.29-1.06-.21-.18-.4-.37-.6-.56-.09-.1-.19-.19-.28-.29-.09-.09-.19-.2-.24-.27l-.33,1.54s-.01,0,0,0h.03s.09-.05.09-.05c.06-.02.13-.05.2-.07.14-.04.29-.09.44-.12.3-.08.62-.14.95-.2.65-.11,1.31-.2,1.97-.27,1.33-.14,2.69-.2,4.05-.24.57-.01,1.02-.49,1-1.05-.01-.46-.32-.84-.74-.96h0c-.58-.17-1.19-.46-1.76-.84-.58-.37-1.14-.81-1.67-1.28-.54-.47-1.05-.98-1.55-1.51-.49-.53-.98-1.09-1.41-1.64l-.76,1.65,7.55-.45h0c.57-.03,1.01-.53.97-1.1-.03-.43-.31-.78-.69-.92l-7.94-2.82.29,1.81c.22-.17.57-.36.93-.53.36-.17.74-.33,1.12-.49.77-.31,1.57-.59,2.37-.86.8-.27,1.61-.52,2.43-.77.81-.25,1.64-.48,2.45-.71h0c.56-.16.89-.73.73-1.29-.12-.42-.48-.71-.88-.76-.93-.11-1.83-.2-2.74-.28-.91-.08-1.82-.15-2.73-.21-1.82-.12-3.65-.19-5.47-.22l.66,1.87c1.56-1.28,3.39-2.29,5.3-3.11.96-.41,1.94-.77,2.93-1.09.99-.32,2.03-.6,3-.81h0c.58-.12.95-.69.83-1.27-.08-.4-.39-.71-.76-.81-1.28-.35-2.59-.77-3.86-1.21-1.27-.45-2.53-.93-3.76-1.48-1.22-.54-2.41-1.14-3.5-1.84-.54-.35-1.06-.72-1.5-1.13-.45-.4-.83-.85-1.04-1.28-.16-.32-.45-.53-.78-.58h-.04c-.44-.08-.89-.14-1.33-.23-.44-.1-.88-.17-1.32-.3-.88-.21-1.73-.5-2.57-.82-.84-.33-1.65-.7-2.43-1.13-.39-.21-.77-.44-1.14-.68-.18-.12-.36-.24-.54-.37-.09-.06-.17-.13-.26-.19-.08-.06-.17-.14-.22-.18l-.24,1.78,6.63-3.3h0c.54-.27.76-.92.49-1.46-.19-.38-.57-.6-.97-.6-.96,0-1.9.01-2.84.03-.94.02-1.89.06-2.83.11-1.89.1-3.78.26-5.68.53l1.2,1.41c.15-.44.32-.88.54-1.3.22-.42.47-.83.75-1.23.56-.79,1.23-1.53,1.96-2.22.73-.68,1.53-1.32,2.36-1.89.42-.29.84-.57,1.28-.83.43-.26.89-.52,1.3-.72h.02c.55-.28.77-.94.5-1.49-.23-.46-.74-.69-1.22-.59-1.75.37-3.42.79-5.1,1.25-1.68.46-3.35.95-5.01,1.48-3.32,1.05-6.6,2.23-9.82,3.54-3.23,1.31-6.41,2.74-9.51,4.33-1.56.79-3.09,1.63-4.6,2.49-1.52.87-2.99,1.78-4.47,2.69-5.89,3.69-11.6,7.71-16.84,12.35-2.61,2.33-5.11,4.82-7.31,7.6-1.1,1.39-2.12,2.86-3.01,4.43-.89,1.57-1.61,3.26-2.07,5.08l2.19-.19c-1.17-2.72-1.38-5.8-.89-8.81.48-3.02,1.55-5.97,2.91-8.78,1.37-2.82,3.02-5.51,4.84-8.09.91-1.29,1.87-2.55,2.86-3.78.99-1.22,2.03-2.44,3.08-3.56h0c.45-.48.43-1.23-.05-1.68-.43-.41-1.09-.43-1.54-.07-5.23,4.09-10.65,8.02-16.16,11.75-5.53,3.71-11.18,7.26-17.05,10.32-1.47.77-2.94,1.48-4.46,2.18-1.51.7-3.03,1.4-4.55,2.08-3.04,1.35-6.1,2.65-9.21,3.68-3.11,1.04-6.27,1.76-9.48,1.9-3.21.15-6.45-.26-9.69-.88l.19,2.37c1.94-.71,3.78-1.56,5.59-2.46,1.8-.91,3.57-1.87,5.31-2.87,3.48-2,6.87-4.14,10.2-6.35,6.65-4.44,13.07-9.21,19.29-14.23.54-.43.62-1.22.19-1.75-.25-.31-.62-.47-1-.46h-.01c-3.55.1-7.1-.08-10.63-.51-3.52-.45-7.02-1.14-10.45-2.09-3.43-.94-6.79-2.13-10.06-3.54-1.63-.7-3.24-1.46-4.81-2.28-.79-.41-1.56-.84-2.33-1.28-.76-.44-1.54-.91-2.22-1.37l-.79,2.29c2.61.12,5.16.11,7.73.05,2.56-.07,5.12-.19,7.68-.39,2.55-.2,5.11-.44,7.65-.78,2.54-.31,5.08-.72,7.6-1.16.69-.12,1.15-.77,1.03-1.46-.12-.66-.73-1.12-1.39-1.04h-.02c-4.18.49-8.48.18-12.51-.99-2.01-.59-3.96-1.39-5.76-2.43-1.8-1.04-3.46-2.31-4.9-3.79l-.8,2.15c1.52-.15,2.93-.39,4.36-.66,1.42-.27,2.84-.58,4.24-.91,2.81-.67,5.59-1.44,8.34-2.32,2.75-.88,5.47-1.87,8.14-2.98,2.67-1.11,5.3-2.36,7.85-3.76.62-.34.84-1.12.5-1.74-.31-.55-.96-.79-1.54-.59h0c-2.88,1-5.89,1.72-8.93,2.22-3.04.5-6.12.79-9.2.87-3.08.08-6.17-.05-9.23-.41-3.05-.36-6.08-.96-9-1.85l-.16,2.51c1.78-.31,3.45-.81,5.09-1.37,1.63-.56,3.23-1.18,4.8-1.84,3.15-1.32,6.23-2.76,9.27-4.25,6.09-2.99,12.05-6.19,17.97-9.46,5.92-3.27,11.78-6.63,17.63-10.01,5.85-3.37,11.66-6.81,17.51-10.14h0c.62-.36.84-1.15.49-1.78-.2-.36-.56-.58-.94-.64-5.77-.85-11.62-1.32-17.47-1.25-5.85.06-11.7.67-17.44,1.78-5.74,1.09-11.38,2.65-16.9,4.45-5.53,1.8-10.96,3.84-16.36,5.94l1.42,2.06c1.6-1.75,3.3-3.41,5.09-4.96,1.79-1.55,3.7-2.97,5.67-4.3,1.97-1.33,4.02-2.55,6.13-3.66,2.11-1.11,4.27-2.13,6.47-3.06,4.41-1.84,8.97-3.36,13.61-4.64,4.64-1.28,9.34-2.34,14.08-3.33l7.12-1.48,1.79-.38,1.74-.34,1.76-.29,1.77-.24c4.74-.59,9.55-.78,14.37-.81,4.82-.02,9.64.15,14.46.44,4.81.29,9.64.7,14.41,1.26.69.08,1.31-.41,1.39-1.1.06-.55-.24-1.06-.71-1.28h0c-1.89-.89-3.81-1.91-5.65-2.99-1.84-1.08-3.65-2.23-5.37-3.48-1.73-1.24-3.38-2.58-4.9-4.03-1.52-1.45-2.89-3.03-3.97-4.75l-1.49,1.83c2.66.93,5.31,1.62,7.96,2.28,2.66.65,5.32,1.26,7.98,1.84,5.33,1.16,10.66,2.24,15.99,3.3,10.67,2.13,21.36,4.13,31.97,6.37,2.65.57,5.3,1.15,7.9,1.81,1.31.33,2.57.69,3.83,1.11,1.26.41,2.52.89,3.76,1.38,2.49.99,4.96,2.08,7.41,3.23,2.45,1.14,4.88,2.34,7.29,3.56,9.67,4.9,19.16,10.2,28.83,15.23.58.3,1.3.08,1.6-.51.24-.45.15-.99-.17-1.35h0c-1.25-1.38-2.4-2.93-3.44-4.52-1.04-1.6-1.96-3.26-2.72-4.99-.75-1.72-1.34-3.51-1.6-5.31-.27-1.79-.19-3.61.42-5.21l-2.15.1c1.31,2.62,3,4.93,4.8,7.11,1.81,2.18,3.74,4.22,5.74,6.18,4,3.93,8.23,7.57,12.52,11.11,8.59,7.08,17.48,13.75,26.15,20.64,4.33,3.45,8.62,6.95,12.68,10.66,1.02.93,2,1.87,2.94,2.84.94.98,1.85,1.99,2.72,3.04,1.74,2.09,3.32,4.32,4.74,6.64,2.83,4.65,5.02,9.7,6.4,14.96.69,2.63,1.17,5.31,1.38,8,.21,2.69.14,5.4-.33,8.01-.49,2.59-1.41,5.13-3.04,7.05-.8.95-1.81,1.76-2.9,2.36-1.1.61-2.31,1-3.58,1.21-2.53.41-5.21.06-7.79-.63-2.59-.7-5.11-1.73-7.57-2.92-2.46-1.19-4.85-2.53-7.23-3.94-1.2-.7-2.36-1.41-3.61-2.12-1.24-.7-2.5-1.33-3.77-1.93-5.08-2.39-10.31-4.39-15.65-6.07-2.67-.83-5.38-1.57-8.12-2.18-2.75-.59-5.53-1.07-8.39-1.23-1.42-.08-2.89-.07-4.31.07-1.43.13-2.83.36-4.23.65-2.78.59-5.5,1.44-8.12,2.52-2.62,1.09-5.15,2.41-7.51,4-2.36,1.59-4.57,3.44-6.47,5.59-1.9,2.15-3.45,4.63-4.47,7.31-1.02,2.67-1.51,5.53-1.38,8.33Z"/>
            <path class="cls-1" d="M265.08,117.05c-4.18-.61-8.53-.02-12.6,1.25-.51.16-1.02.32-1.52.5-.5.17-1.01.35-1.5.55-.5.19-.99.4-1.48.61-.49.2-.98.43-1.46.65-1.94.88-3.81,1.9-5.65,2.96-3.67,2.13-7.16,4.54-10.58,7-1.71,1.23-3.4,2.49-5.08,3.75l-2.51,1.9c-.41.3-.82.61-1.23.9-.42.29-.84.58-1.27.86-3.41,2.26-7.09,4.16-10.85,5.9-3.76,1.74-7.62,3.28-11.53,4.72-1.95.72-3.92,1.41-5.89,2.07-1.97.68-3.95,1.33-5.94,1.96-3.98,1.26-7.99,2.43-12.01,3.63l.63,2.27c4.07-1.04,8.12-2.16,12.16-3.36,2.02-.6,4.03-1.22,6.04-1.86,2-.66,4-1.34,5.98-2.06,3.98-1.42,7.9-3.01,11.75-4.8,3.85-1.78,7.62-3.79,11.18-6.19.45-.3.88-.62,1.32-.92.44-.31.86-.64,1.3-.97l2.49-1.92c1.65-1.28,3.3-2.56,4.97-3.81,3.33-2.51,6.73-4.9,10.25-7.09,3.51-2.19,7.14-4.17,10.96-5.73,3.82-1.55,7.86-2.58,12.07-2.75Z"/>
            <path class="cls-1" d="M258.85,152.06l1.44,2.08-.59,2.26-5.56,2.32-9.18,2.82c-4.52-1.16-5.07-2.25-5.07-2.25,0,0-.48,1.33.74,2.26l-.49-.17c9.54,10.35,28.57,10.2,28.57,10.2l-1.29.73c-4.52,2.92-6.89,7.05-6.89,7.05l1.42-.3c2.79-5.15,8.51-6.45,10.62-6.57,2.11-.12,6.32.71,6.32.71l-3.3-1.33c.92-.11,9.82-1.63,12.72-1.52,2.91.12,5.21.11,10.36,3.27-1.21-1.25-4.78-3.94-4.78-3.94,0,0,4.9-.58,17.44,1.7,12.54,2.29,25.36,8.12,25.36,8.12,0,0-18.26-6.97-35.51-7.57,16.45,1.75,39.18,11.18,39.18,11.18l-19.55-4.43,16.78,6.22-27.21-5.31,20.83,5.74c-1.5.18-9.84,1.97-14.48,8.69,7.38-5.39,15.47-7.61,25.04-6.23-4.52,1.6-13.59,5.53-19.15,13.42,13.75-12.54,34.1-13.67,34.1-13.67,0,0-4.4.92-7.76,3.13,2.34-.59,8.62-1.51,15.34-1.83,6.72-.32,15.43,2.12,15.43,2.12,0,0-2.54-1.82-7.06-3.07,4.4-.92,10.12.39,13.71,3.79-2.1-.95-6.6-2.52-6.6-2.52,0,0,9.15,6.67,12.59,9.97,3.44,3.3,9.54,8.87,16.18,8.94,0,0-6.31-1.59-9.57-6.31,2.53,1.2,9.6,2.66,14.45,1.11-18.99-1.53-23.66-10.88-23.44-14.27,0-.13.01-.25.02-.36,6.59,6.01,17.71,9.45,25.14,8.23-11.16-.65-16.75-4.63-21.27-7.54-4.52-2.91-2.95-8.8-2.95-8.8,0,0,10.57,5.6,20.35,4.61-10.01-.22-23.35-8.27-32.6-17.68,12.12,6.07,27.61,5.46,27.61,5.46,0,0-4.47-.44-16.17-3.64-11.7-3.2-18.92-8.97-18.92-8.97,0,0,16.2,4.7,23.17,3.07-8.28.28-22.91-4.61-31.74-8.95-8.83-4.34-28.99-8.13-44.61-7.24-15.63.89-28.42,4.25-28.42,4.25l5.26-4.27s-9.47,5.11-11.72,5.7c-2.25.6-6.03,1.12-6.03,1.12l6.1-3.84s-4.72,2.02-8.98,4.12c-8.46,1.71-15.4-1.81-15.4-1.81ZM383.3,186.01l2.98-.18c.51.6.19,1.57.19,1.57l-3.17-1.39ZM385.48,177.45c-4.24-1.45-6.39-4.84-6.39-4.84,0,0,3.31,1.66,6.39,4.84ZM337.4,176.58c4.31.55,18.34.11,32.82.19l-22.7,1.66,24.49,1.19-19.15.96,20.98,1.35-12.4,1.08,12.04.89s-6.54,1.38-11.88,1.08c-5.34-.29-8.57-.7-24.2-8.39ZM355.13,163.28s-10.77.54-20.91,2.74c8.05-.86,22.94-1.6,36.9,2.04-7.87-1.54-27.79-2.52-45.93.61,11.05-1.58,29.71-.98,40.74,1.07-7.5-.61-24.23-.12-24.23-.12l24.37,2.05-32.56.43s17.17.96,27.95,1.62c4.49.28,8.32,1.02,11.25,1.78-4.91-.52-10.79-.67-18.8-.62-12.98.09-26.05-2.2-26.05-2.2l6.9-2.15s-7.35,1.14-11.88,1.81c-2.4-.38-14.59-3.63-14.59-3.63l31.36-5-20.76,1.01c13.22-2.85,27.01-2.36,36.24-1.45ZM242.99,162.37c4.04.49,14.98,3.34,24.63,2.72,9.65-.62,19.54-2.15,28-3.87,8.46-1.71,23.87-4.43,31.2-5.22,7.33-.78,17.98-1.88,27.05.76-8.57-.75-13.57-1.12-25.41,1.08,5.23-.62,17.21-.99,29.24,1.38-5.3-.69-18.35-1.17-31.19.8,14.31-1.4,30.55,1.24,34.64,1.97-25.53-2.29-43.41.11-48.92,1.32,2.18-1.36,5.27-4.38,5.27-4.38,0,0-7.32,4.19-11.68,5.46-4.36,1.27-16.53,3.34-23.56,4,3.26-1.18,7.91-4.12,7.91-4.12,0,0-11.94,4.43-16.99,4.68-5.05.25-9.32-.35-14.13-1.01.99-.21,3.65-1.23,3.65-1.23,0,0-3.63.34-6.89.78-5.86-.98-12.81-5.1-12.81-5.1ZM301.7,150.67s-5.63,1.73-10.33,4.01c7.41-2.34,24.94-5.42,24.94-5.42,0,0-15.3,3.48-22.63,6.47,12.69-3.63,28.8-4.76,28.8-4.76,0,0-12.52,1.76-25.31,5.47,14.49-2.65,37.26-5.9,55.32-3.41-24.28-2.41-58.27,6.15-68.5,8.16-9.93,1.95-20.09,3.06-30.89,1.77,7.21.19,15.35-.75,20.17-2.04-8.38,1.22-17.6-.42-17.6-.42,0,0,6.53-1.57,10.37-1.99,3.84-.41,13.63.54,13.63.54,0,0-5.07-1.74-9.25-1.64,4.9-1.16,12.86-.34,12.86-.34,0,0-2.76-1.26-5.46-1.34,6.98-.74,23.88-5.08,23.88-5.08Z"/>
            <path class="cls-1" d="M236.41,89.11c1.98,2.29,4.37,4.13,6.87,5.7,2.51,1.57,5.16,2.88,7.89,3.97,2.72,1.1,5.51,2,8.36,2.68,2.84.68,5.73,1.16,8.63,1.3-2.83-.66-5.59-1.49-8.29-2.45l-2.02-.75-1.99-.8-1.97-.85c-.65-.29-1.3-.6-1.94-.9-2.57-1.24-5.07-2.6-7.44-4.13-2.37-1.52-4.62-3.22-6.62-5.14l-1.48,1.37Z"/>
            <g>
              <path class="cls-1" d="M149.53,180.21l.14.08s-2.23.19-.14-.08Z"/>
              <path class="cls-1" d="M232.34,130.64s-3.1,4.56-11.31,9.86c-8.21,5.31-15.55,8.92-29.26,14.79,3.22-.39,21.48-8.12,37.79-16.69-9.55,6.62-28.98,15.64-28.98,15.64,0,0,21.23-8,36.69-15.5-10.09,5.89-29.65,15.2-43.72,21.03-14.07,5.83-24.56,6.81-34.61,7.75,1.9.39,12.9-.03,23.62-2.81,10.72-2.78,60.76-24.56,60.76-24.56-6.19,3.3-26.98,13.56-26.98,13.56,0,0,11.03-4.58,27.92-11.19-5.71,3.24-32,15.57-32,15.57,0,0,10.14-3.15,27.93-10.4-7.54,4.26-20.08,9.55-29.81,13.87,11.18-3.39,33.6-12.47,33.6-12.47,0,0-12.11,6.66-22.88,11.2-10.77,4.53-22,8.26-22,8.26,0,0,2.89-2.11,4.76-5.65-1.84,2.38-7.9,6.62-10.4,7.32-2.5.7-4.89,1.25-13.7,1.83,4.76-.63,11.63-5.3,11.63-5.3,0,0-5.19,2.61-17.19,4.83-12,2.22-16.82-.45-16.82-.45,4.33.74,12.56.29,16.8-2-8.73,2.43-18.95.67-20.54-.47-1.59-1.14-2.06.15-2.06.15,2.22,1.8,8,3.83,11.62,4.66,3.62.83,7.71.53,7.71.53l-6.59,1.61c-1.98-.18-3.21-.3-3.21-.3l-12.93,1.3-5.24-.24,6.61,3.87c.14-.02.3-.04.48-.06,2.88-.36,32.02.97,43.13-.71,11.11-1.68,25.76-5.63,43.98-12.93-9.86,6.3-27.06,11.18-41.79,14.46,15.01-1.39,33.52-7.97,33.52-7.97,0,0-8.25,3.63-17.34,6.37,3.13-.44,10.59-2.39,21.39-6.33-6.61,4.04-14.05,6.34-24.63,9.14.73-.93,1.51-2.57,1.51-2.57,0,0-2.43,2.19-5.78,3.38-7.77,2.25-17.24,2.89-20.78,2.92-3.53.02-6.75.49-6.75.49,5.32-.99,11.97-4.92,11.97-4.92,0,0-14.11,4.38-17.6,3.64-3.49-.73-5.02.35-5.02.35l13.96,2.69,6.46.03c-.79,1.51-4.76,4.54-4.76,4.54l-5.07.04-4.49,3.32,6.4-.95c-3.88,3.03-13.86,9.08-13.86,9.08,0,0,9.51-3.61,20.83-11.41-3.99,3.57-16.57,11.52-29.55,17.57,15.81-5.33,36.89-18.27,36.89-18.27,0,0-11.64,8.37-23.81,14.59,7.3-2.55,38.22-19.05,38.22-19.05l8.06-6.08s-6.05,5.43-8.54,11.26c-2.49,5.83-3,12.65-3,12.65,0,0,3.04-9.51,8.49-16.13,5.44-6.61,18.8-14.7,24.64-15.73-10.18,4.73-17.2,11.4-17.2,11.4,0,0,7.96-6.12,15.35-8.02-3.51,1.72-11.57,6.97-18.46,13.09,4.98-3.84,15.68-9.69,15.68-9.69,0,0-13.38,8.95-19.1,16.66,13.93-14.39,38.57-24.61,50.61-26.98,0,0-11.77-1.98-16.01-4.17-4.24-2.19-6.13-4.73-6.13-4.73,1.62.97,6.6.54,6.6.54l5.49-2.16,7.54-1.96.27-3.66-2.51-1.93s5.97-1.66,10.83-4.63c4.86-2.97,7.11-1.91,10.49-3.19,3.38-1.29,5.41-1.35,9.79-2.76-5.5.21-9.78,1.34-9.78,1.34,13.07-6.06,20.66-5.38,32.03-3.46-3.98-1.47-8.75-2.23-8.75-2.23,0,0,11.61-.5,22.15,1.16-10.3-4.08-30.51-3.88-36.33-1.51-5.82,2.37-13.51,2.67-13.51,2.67,0,0,1.87-.62,6.64-2.87-4.41.44-10.39,2.96-11.08,3.04s-2.3,0-2.3,0l3.26-2.33s-3.97,1.53-6.73,2.13c-2.76.59-13.55-1.74-13.55-1.74l24.96-6.42s-8.66.77-17.67,2.99c4.65-2.5,14.9-4.78,17.39-4.63,2.49.15,6.8.69,11.75-1.49-4.18.5-8.46.21-8.46.21,0,0,7.26-2.1,14.35-2.68-8.92-1.41-26.12,2.58-30.18,4.13-4.06,1.54-11.13,1.5-11.13,1.5l8.37-3.21s-14.42,3.57-16.17,3.78-3.61.08-3.61.08l6.96-2.42s-8.2,1.68-10.29,1.93c-2.09.25-5.91-.83-5.91-.83ZM249.36,159.23c6.73-3.59,10.58-4.64,10.58-4.64-3.02,2.48-8.57,4.33-10.58,4.64ZM242.04,159.57s4.7-2.88,7.38-3.73c-2.47,2.61-7.38,3.73-7.38,3.73ZM242.91,152.97c-7.64,5.42-22.1,12.05-36.55,17.08,8.74-1.77,29.96-10.07,29.96-10.07,0,0-13.81,7.08-22.36,9.82,4.77-.57,14.52-3.85,21.24-6.8-6.89,4.51-18.4,8.4-25.99,9.57,1.66.2,5.8.46,5.8.46,0,0-2.31.63-10.86,3.06-8.55,2.43-17.38,3.22-26.39,3.32s-24.26-1.8-24.26-1.8c0,0,21.38-.07,35.82.15-4.38-.33-13.63-1.16-20.35-1.77l16.49-.25-7.57-1.22s5.99-.89,8.43-.47c7.86,1.34,17.63-1.13,17.63-1.13,0,0-6.8.81-11.44-.32,11.92-3.1,34.28-11.97,50.4-19.66ZM257.5,147.47c-4.49,5.16-12.37,7.49-12.37,7.49,0,0,8.44-4.82,12.37-7.49Z"/>
            </g>
            <path class="cls-1" d="M237.47,140.49c-5.67,5.52-12.18,17.18-12.18,17.18,0,0,6.11-12.75,7.25-14.83,1.14-2.08,4.93-2.35,4.93-2.35Z"/>
            <path class="cls-1" d="M163.22,163.86c3.1-.2,6.2-.69,9.31-1.12l4.67-.67c1.56-.23,3.12-.47,4.68-.73-1.58-.12-3.16-.19-4.74-.23-1.58-.04-3.16-.05-4.74-.03-1.58.03-3.16.05-4.74.16-1.58.11-3.16.28-4.72.62l.28,2Z"/>
            <path class="cls-1" d="M171.2,161.15c1.08-.33,2.19-.64,3.31-.88,1.12-.24,2.26-.46,3.41-.62,2.3-.33,4.62-.55,6.96-.61-2.33-.28-4.68-.4-7.04-.4-1.18,0-2.36.05-3.55.13-1.19.08-2.38.23-3.57.41l.47,1.96Z"/>
            <path class="cls-1" d="M143.63,157.61c3.09.06,6.19.07,9.28-.05,3.09-.13,6.18-.36,9.25-.76,3.07-.4,6.11-.98,9.09-1.8,2.98-.81,5.87-1.93,8.61-3.32-2.82,1.21-5.76,2.13-8.75,2.74-2.99.63-6.02,1-9.07,1.2-3.04.2-6.09.23-9.14.16-3.05-.08-6.09-.28-9.13-.53l-.13,2.35Z"/>
            <path class="cls-1" d="M147.63,156.53c1.34-.16,2.68-.33,4.01-.54,1.33-.21,2.65-.43,3.97-.68,2.64-.49,5.26-1.04,7.85-1.67-2.66.25-5.32.41-7.98.5-1.33.05-2.66.08-3.98.09-1.33.01-2.65-.01-3.97-.05l.09,2.35Z"/>
            <path class="cls-1" d="M160.17,151.39c1.92-.11,3.76-.44,5.57-.86,1.81-.42,3.58-.94,5.32-1.53,1.74-.59,3.45-1.25,5.13-1.95,1.68-.71,3.35-1.46,4.96-2.32-1.69.68-3.42,1.24-5.15,1.77-1.74.52-3.49.98-5.25,1.37-1.76.4-3.54.71-5.31.93-1.77.21-3.54.33-5.27.24v2.36Z"/>
            <path class="cls-1" d="M209.56,146.62c2.15-.91,4.11-2.13,5.94-3.5.46-.34.91-.69,1.35-1.05.44-.36.88-.73,1.3-1.11.86-.74,1.67-1.55,2.47-2.35,1.6-1.61,3.05-3.35,4.38-5.19.33-.46.64-.94.96-1.41.3-.48.59-.97.88-1.46.54-1,1.07-2.02,1.4-3.11-1.16,1.9-2.63,3.57-4.14,5.19-1.52,1.61-3.12,3.14-4.79,4.59-1.67,1.44-3.4,2.81-5.2,4.05-1.8,1.24-3.67,2.37-5.61,3.25l1.07,2.1Z"/>
            <path class="cls-1" d="M184.83,155.63c.7-.28,1.39-.58,2.07-.91.34-.16.68-.33,1.01-.51l.98-.55c.33-.18.65-.37.97-.57.32-.2.65-.38.95-.59.62-.42,1.24-.83,1.84-1.27.6-.44,1.19-.9,1.78-1.35.57-.48,1.15-.95,1.69-1.46,1.09-1.01,2.11-2.12,2.98-3.35-1.17.88-2.38,1.71-3.61,2.5-1.23.79-2.49,1.53-3.76,2.24-1.27.71-2.57,1.36-3.88,1.97-1.31.62-2.65,1.13-3.98,1.62l.97,2.25Z"/>
            <path class="cls-1" d="M191.98,134.27c1.14-.43,2.29-.83,3.47-1.21,1.19-.36,2.38-.71,3.6-1.04l3.67-.96c1.23-.32,2.47-.65,3.72-1.02-1.29-.17-2.59-.19-3.89-.16-1.29.05-2.59.16-3.87.35-.64.1-1.29.19-1.92.34-.64.12-1.28.29-1.91.45-1.26.36-2.52.8-3.71,1.41l.84,1.84Z"/>
            <path class="cls-1" d="M246.68,116.85c-2.19.45-4.31,1.22-6.38,2.08-2.07.87-4.09,1.84-6.07,2.89-1.99,1.03-3.93,2.14-5.86,3.26-1.93,1.13-3.83,2.31-5.72,3.48l-5.64,3.6-5.6,3.63c-1.87,1.2-3.74,2.41-5.65,3.55-1.9,1.16-3.82,2.27-5.87,3.15,2.16-.6,4.2-1.57,6.2-2.57,1.99-1.02,3.95-2.11,5.87-3.24,1.94-1.12,3.83-2.29,5.74-3.45l5.67-3.53c1.88-1.19,3.77-2.36,5.67-3.53,1.89-1.18,3.8-2.31,5.71-3.44,1.92-1.11,3.86-2.2,5.84-3.21,1.98-1.01,4-1.93,6.1-2.67Z"/>
            <path class="cls-1" d="M263.12,112.77c-11.89-.79-22.84,3.78-39.55,13.37-16.71,9.59-35.79,21.98-55.28,26.42,16.7-5.57,35-15.57,44.78-22.57,9.77-7,20.43-12.11,20.43-12.11,0,0-15.02,5.5-22.28,9.9,7.35-5.74,24.53-14.41,34.38-16.29,9.85-1.88,18.21-1.99,21-.91-10.44-.17-16.73,1.9-16.73,1.9,0,0,8.93-1.42,13.25.28Z"/>
            <path class="cls-1" d="M202.89,134.15c-1.2.55-2.34,1.16-3.49,1.77-.58.29-1.14.62-1.71.92-.57.31-1.13.63-1.7.93-1.13.62-2.26,1.26-3.38,1.91-1.12.65-2.25,1.31-3.33,2.05,1.27-.36,2.49-.82,3.69-1.34,1.2-.52,2.37-1.09,3.52-1.73.57-.32,1.14-.65,1.69-.99.55-.35,1.11-.7,1.64-1.07,1.07-.74,2.12-1.54,3.08-2.44Z"/>
            <path class="cls-1" d="M148.6,131.15c1.49-1.17,3.06-2.31,4.64-3.41,1.58-1.1,3.2-2.15,4.84-3.17,1.65-1,3.33-1.96,5.05-2.84,1.73-.87,3.49-1.66,5.32-2.32-1.88.5-3.72,1.14-5.53,1.86-1.8.74-3.58,1.55-5.33,2.42-1.74.88-3.46,1.8-5.16,2.77-1.7.97-3.36,1.97-5.02,3.06l1.19,1.63Z"/>
            <path class="cls-1" d="M177.42,112.94c1.04-.27,2.14-.46,3.24-.62,1.11-.16,2.23-.26,3.36-.34,1.13-.09,2.26-.14,3.39-.18,1.13-.04,2.27-.06,3.41-.05-1.1-.56-2.23-.83-3.37-1.01-.57-.09-1.14-.14-1.71-.19-.57-.05-1.15-.1-1.72-.11-1.15-.05-2.31-.06-3.47.01-.58.04-1.16.08-1.75.18-.29.05-.58.08-.88.14-.29.05-.58.13-.88.19l.37,1.98Z"/>
            <path class="cls-1" d="M188.37,109.65c.48-.18,1.09-.27,1.71-.32.62-.05,1.27-.05,1.92-.03.65.03,1.31.07,1.97.14.66.06,1.33.14,2,.23-.6-.31-1.22-.58-1.85-.84-.63-.24-1.27-.48-1.93-.66-.66-.19-1.33-.36-2.04-.46-.71-.1-1.44-.16-2.26-.03l.49,1.96Z"/>
            <path class="cls-1" d="M180.92,121.02c.74-.48,1.52-.95,2.3-1.4.78-.45,1.57-.89,2.37-1.31.8-.42,1.61-.81,2.45-1.16.83-.34,1.68-.67,2.58-.85-.92.01-1.83.18-2.73.37-.9.19-1.79.44-2.68.7-.88.27-1.76.56-2.63.87-.87.31-1.73.63-2.6.99l.94,1.79Z"/>
            <path class="cls-1" d="M213.96,121.91c5.24-3.01,17.72-8.93,22.67-10.4-6.98,3.35-13.94,7.63-13.94,7.63,0,0,12.44-6.12,18.77-7.89,6.33-1.77,16.79-2.62,16.79-2.62,0,0-7.04-.49-11.8.04,7.32-1.58,11.49-1.5,16.45-.5,4.96,1,13.48,2.97,13.48,2.97,0,0-6.38.43-10.81,1.62,10.44-.85,23.66,1.42,33.29,3.64,9.63,2.21,28.5,12.96,28.5,12.96,0,0-12.68-9.36-19.9-12.39,9.94,2.26,28.58,14.36,28.58,14.36,0,0-4.88-4.9-8.4-7.04,10.48,4.14,20.48,10.95,23.02,13.28-3.43-4.65-6.55-6.4-6.55-6.4l18.13,8.98s-13.83-9.22-22.64-13.48c-8.82-4.25-28.96-11.58-36.26-13.53-7.3-1.96-26.42-4.19-26.42-4.19l7.79-1.37s-10.98,1.31-17.14-1.41l5.85-1s-6.32.39-10.59-.43c-4.27-.82-13.08-6.26-13.08-6.26l2.18,2.13,5.66,3.57-7.93-.8-5.61.15s-4.23,1.23-11.74,1.07-17.95,1.08-17.95,1.08c0,0,10.41-.38,16.1.6-14.38.59-21.19,1.13-25.89,1.82,9.31-.18,18.95,0,18.95,0,0,0-18.48,1.21-26.4,2.62,10.25-.23,22.3-.87,26.11-.66-17.6,1.37-37.99,2.91-51.43,8.05,17.39-4.81,37.06-5.7,53.13-5.87-16.99,1.3-31.54,2.96-31.54,2.96,0,0,22.35-.21,25.57-.39-18.83,1.05-19.29,1.1-19.29,1.1,0,0,12.7.34,15.47,2.4l-3.19,3.27,2.03.34Z"/>
            <path class="cls-1" d="M344.86,140.07c-10.15-7.32-29.22-14.86-38.97-17.67-9.74-2.82-23.39-6.11-37.45-6.15,5.61,1.06,7.35,1.56,7.35,1.56,0,0-11.31,1.52-19.1,5.1,9.34-2.44,17.52-3.15,17.52-3.15,0,0-8.53,2.17-14.59,3.95-6.06,1.78-16.61,3.41-19.94,1.94l-7.32,4.99s20.9-3.96,28.78-6c7.89-2.04,17.94-4.13,25.18-3.66-4.42.61-9.38,2.31-9.38,2.31,0,0,10.96-1.88,16.07-1.65,5.11.23,12.06,2.14,12.06,2.14l-11.83-.98,16.51,3.2-12.07-.86,14.56,3.22s-10.89-.87-15.49-.59c10.44.79,20.42,2.61,20.42,2.61,0,0-12.06-.46-18.91-.4-6.85.06-14.6,1.83-18.26,2.97s-13.67,2.87-17.33,3.26c10.34-.39,14.48-1.04,18.98-2.24,4.5-1.2,9.86-1.84,14.29-2.43-4.92,1.51-9.1,4.07-9.1,4.07,0,0,7.91-2.93,14.65-3.73,6.73-.8,16.28-.75,24.93,1.67,8.64,2.42,18.48,6.52,18.48,6.52Z"/>
          </g>
        </g>
        <circle class="cls-4" cx="120.53" cy="120.53" r="118.03"/>
      </g>
    </g>
  </g>
</svg>